<svg viewBox="0 0 390.65 275.6" xmlns="http://www.w3.org/2000/svg" xmlns:xlink="http://www.w3.org/1999/xlink"><clipPath id="a"><path d="m0 0h390.65v275.6h-390.65z"/></clipPath><clipPath id="b"><path d="m0 0h390.65v275.6h-390.65z"/></clipPath><clipPath id="c"><path d="m0 0h390.65v275.6h-390.65z"/></clipPath><clipPath id="d"><path d="m0 0h390.65v275.6h-390.65z"/></clipPath><clipPath id="e"><path d="m0 0h390.65v275.6h-390.65z"/></clipPath><clipPath id="f"><path d="m0 0h390.65v275.6h-390.65z"/></clipPath><g clip-path="url(#a)"><path d="m382.82 126.07c0 67.5-83.95 122.22-187.5 122.22s-187.5-54.72-187.5-122.22 83.95-122.22 187.5-122.22 187.5 54.72 187.5 122.22" fill="#fff" fill-rule="evenodd"/><ellipse cx="195.32" cy="126.07" fill="none" rx="187.5" ry="122.22" stroke="#89bf44" stroke-width="2"/><g fill="#8dc63f"><path d="m260.81 100.02c4.73 0 8.56-3.75 8.56-8.37s-3.83-8.37-8.56-8.37-8.56 3.76-8.56 8.37 3.85 8.37 8.56 8.37" fill-rule="evenodd"/><path d="m288.03 116.68c1.81 2.68 3.54 5.24 4.96 7.36 7.52 3.59 12.74 11.25 12.74 20.13 0 12.31-10.01 22.33-22.32 22.33s-22.33-10.02-22.33-22.33c0-.46.04-.93.08-1.37h-1.18c-.23.37-1.91 3.08-3.99 6.47 2.39 12.96 13.77 22.81 27.42 22.81 15.38 0 27.9-12.52 27.9-27.91 0-13.81-10.08-25.28-23.28-27.49" fill-rule="evenodd"/><path d="m246.1 163.08 13.21-21.46h28.62c3.3 0 11.42-5.65 7.29-12.12 0 0-18.02-26.97-19.53-28.48-1.52-1.5-6.2-2.9-10.33-.14-3.24 2.17-10.03 17.46-10.03 17.46s-7.71.14-10.06 0c-2.32-.13-3.02 7.85-.13 7.85h14.04l5.23-9.07 10.87 16.64h-22.15l-17.34 29.32c-.98 1.78-.82 4.37 2.58 4.37s5.46-1.48 7.74-4.37" fill-rule="evenodd"/><path d="m235.74 121.9h24.94v6.92h-24.94z"/><path d="m238.51 122.27-2.7 1.9-14.52-20.74 2.7-1.9z" fill-rule="evenodd"/></g><path d="m119.13 190.48c21.97 8.27 48.98 13.1 77.8 13.1 75.99 0 137.67-33.46 137.67-74.98 0-21.17-19.55-48.78-69.34-48.78-36.08 0-67.53 15.92-67.53 35.48 0 3.43 2.01 7.26 4.64 9.88 4.03 4.64 5.24 10.28 5.24 15.52 0 23.99-35.68 43.34-79.62 43.34-29.03 0-55.63-8.06-68.74-21.16-10.48-10.48-13.91-22.37-13.91-34.27 0-45.76 67.93-82.85 151.58-82.85s151.78 37.09 151.78 82.85-67.93 82.84-151.78 82.84c-33.06 0-63.69-5.85-88.49-15.52l10.69-5.45z" fill="#89bf44" fill-rule="evenodd"/><path d="m118.13 183.7c21.97 8.27 48.98 13.1 77.8 13.1 75.99 0 137.67-33.46 137.67-74.98 0-21.17-19.55-48.78-69.34-48.78-36.08 0-67.53 15.92-67.53 35.48 0 3.43 2.01 7.26 4.64 9.88 4.03 4.64 5.24 10.28 5.24 15.52 0 23.99-35.68 43.34-79.62 43.34-29.03 0-55.63-8.06-68.74-21.16-10.48-10.48-13.91-22.37-13.91-34.27 0-45.76 67.93-82.85 151.58-82.85s151.78 37.09 151.78 82.85-67.93 82.84-151.78 82.84c-33.06 0-63.69-5.85-88.49-15.52l10.69-5.44z" fill="#388841" fill-rule="evenodd"/></g><path d="m133.37 209.28-.81 19.38-.16 2.29 1.08-2.02 9.6-16.84 2.8.81-12.69 21.54-3.17-.92.74-19.24.19-2.28-1.05 2.03-9.65 16.66-3.17-.92.77-24.99 2.8.81-.87 19.37-.16 2.29 1.08-2.02 9.66-16.82z" fill="#231f20"/><g clip-path="url(#b)"><path d="m130.11 233.58 3.11.9 12.59-21.58-2.58-.74-10.65 18.63.72-21.51-2.79-.8-10.79 18.39.86-21.27-2.71-.78-.78 24.99 3.05.88 10.68-18.19z" fill="none" stroke="#231f20" stroke-linecap="round" stroke-linejoin="round"/></g><path d="m159.04 239.46-14.76-2.54 4.1-23.87 14.76 2.54-.41 2.36-12.01-2.07-1.26 7.32 11.16 1.92-.4 2.33-11.16-1.92-1.63 9.46 12.01 2.07-.41 2.4z" fill="#231f20"/><g clip-path="url(#c)"><path d="m159.52 237.06-12.01-2.06 1.62-9.46 11.17 1.92.4-2.34-11.16-1.92 1.25-7.31 12.02 2.06.41-2.36-14.79-2.55-4.11 23.91 14.79 2.54z" fill="none" stroke="#231f20" stroke-linecap="round" stroke-linejoin="round"/></g><path d="m172.54 240.8-8.16-.73 2.15-24.13 8.06.72c4.49.4 6.73 3.04 6.46 6.04-.24 2.68-2.05 4.57-4.79 5.1v.06c3.24.71 5.23 3.26 4.93 6.58-.31 3.51-3.18 6.85-8.66 6.36zm.1-11.97-4.43-.4-.85 9.5 5 .45c3.41.3 5.46-1.38 5.71-4.25.27-3.03-1.45-4.95-5.44-5.3zm.98-9.87-4.53-.4-.67 7.55 4.21.37c3.09.28 5.13-.6 5.39-3.54.22-2.52-1.28-3.71-4.4-3.99z" fill="#231f20"/><g clip-path="url(#d)"><path d="m176.11 240.54c1.05-.31 1.93-.78 2.66-1.38.73-.61 1.29-1.33 1.68-2.15s.63-1.67.71-2.54c.07-.83 0-1.61-.19-2.33-.2-.72-.52-1.37-.95-1.93s-.97-1.04-1.61-1.44-1.37-.69-2.19-.87v-.06c1.38-.26 2.49-.84 3.34-1.74s1.34-2.02 1.46-3.36c.07-.74-.02-1.46-.26-2.14-.24-.69-.64-1.3-1.19-1.84s-1.25-.99-2.08-1.36c-.83-.36-1.82-.59-2.94-.7l-8.06-.72-2.15 24.13 8.16.73c1.36.12 2.56.02 3.61-.29zm.85-10.04c.88.91 1.25 2.14 1.12 3.67-.13 1.45-.68 2.55-1.66 3.32s-2.33 1.08-4.05.92l-5-.45.85-9.5 4.43.39c2 .18 3.44.72 4.32 1.64zm.12-10.37c.74.62 1.05 1.57.94 2.85-.13 1.47-.68 2.46-1.63 2.97-.96.51-2.21.7-3.76.56l-4.21-.38.67-7.55 4.53.4c1.57.14 2.73.52 3.46 1.14z" fill="none" stroke="#231f20" stroke-linecap="round" stroke-linejoin="round"/></g><text fill="#231f20" transform="matrix(.99940896 .03437621 -.03437621 .99940896 182.5 240.41)"><tspan x="0" y="0"/></text><path d="m201.57 225.89c1.56 1.75 4.13 3.3 6.22 4.2l-1.48 1.87c-2.18-1.04-4.4-2.6-6.14-4.37-2.36 2.54-5.35 4.42-7.76 5.4l-1.71-1.72c5.02-1.95 9.51-6.09 10.47-10.06-2 .15-4.11.21-6.2.27l-2.64.08-.06-2.14 4.44-.13c2.44-.07 4.87-.14 7.57-.28-.19 2.53-1.22 4.85-2.7 6.9zm11.55 17.8-16.58.49-.3-10.12 2.46-.07.07 2.29 11.65-.35-.07-2.44 2.46-.07.3 10.26zm-2.53-2.1-.11-3.59-11.65.35.11 3.59zm-5.16-15.64-.07-2.2 4.67-.14-.18-5.91 2.49-.07.42 14.29-2.49.07-.18-6.18-4.67.14z" fill="#231f20"/><g clip-path="url(#e)"><path d="m198.93 241.94-.11-3.59 11.65-.35.11 3.6-11.65.35zm13.87-8.51-2.46.07.07 2.44-11.65.35-.07-2.29-2.46.07.3 10.12 16.58-.49-.3-10.26zm-2.72-7.61.18 6.17 2.49-.07-.43-14.32-2.49.07.17 5.91-4.67.14.07 2.23 4.67-.14zm-6.69-3.18c.48-1.15.77-2.36.86-3.64-1.35.08-2.65.14-3.88.17-1.24.04-2.46.07-3.68.11l-4.44.13.06 2.14 2.64-.08c1.04-.03 2.09-.07 3.13-.11s2.07-.09 3.07-.16c-.24.99-.69 1.98-1.33 2.97-.65.99-1.44 1.92-2.37 2.81s-1.98 1.7-3.13 2.44c-1.16.74-2.37 1.35-3.63 1.83l1.7 1.72c1.2-.48 2.5-1.18 3.9-2.1 1.39-.92 2.68-2.02 3.86-3.29.88.9 1.84 1.73 2.9 2.47s2.13 1.38 3.23 1.91l1.48-1.87c-.53-.22-1.07-.48-1.63-.78s-1.12-.63-1.67-1c-.55-.36-1.08-.75-1.59-1.16s-.95-.83-1.33-1.27c.74-1.03 1.35-2.11 1.83-3.26z" fill="none" stroke="#231f20" stroke-linecap="round" stroke-linejoin="round"/></g><path d="m234.33 227.05c-.04-2.89-.15-6.1-.54-8.94l-14.6 1.98-.29-2.16 17.1-2.31c.49 4.06.71 8.28.77 11.11l4.86-.66.29 2.13-25.01 3.38-.29-2.13 17.71-2.39zm5.65 13.46-17.39 2.35-1.18-8.74 2.47-.33.89 6.58 14.92-2.02z" fill="#231f20"/><g clip-path="url(#f)"><path d="m239.65 238.36-14.92 2.02-.89-6.58-2.47.33 1.18 8.74 17.39-2.35zm-23.07-8.91.29 2.13 25.03-3.39-.29-2.13-4.87.66c-.02-.7-.04-1.48-.08-2.34s-.09-1.77-.15-2.73-.14-1.95-.22-2.97c-.09-1.02-.19-2.04-.31-3.06l-17.13 2.32.29 2.16 14.6-1.97c.19 1.44.33 2.92.4 4.45s.12 3.03.14 4.49l-17.7 2.39z" fill="none" stroke="#231f20" stroke-linecap="round" stroke-linejoin="round"/></g><path d="m249.76 212.43c.45 1.68.64 3.28.64 4.8 2.29 2.56 4.99 4.13 8.51 4.92l-1.06 2.09c-3.02-.7-5.67-2.22-7.75-4.27-.64 3.18-2.3 5.96-4.69 8.21l-2.06-1.19c4.12-3.94 5.63-8.42 3.91-13.94l2.5-.63zm17.03 17.27c.72 2.84-1.62 5.7-7.27 7.12-5.63 1.42-9.04-.03-9.76-2.87-.72-2.87 1.61-5.73 7.23-7.15 5.65-1.42 9.07.02 9.79 2.89zm-2.53.64c-.39-1.55-2.61-2.54-6.78-1.49-4.08 1.03-5.59 2.96-5.21 4.51.38 1.52 2.62 2.45 6.7 1.42 4.16-1.05 5.67-2.92 5.28-4.44zm-8.66-11.97-.54-2.14 5.2-1.31-1.38-5.48 2.42-.61 3.88 15.38-2.42.61-1.96-7.76z" fill="#231f20"/><path d="m264.19 231.52c-.15.42-.43.82-.86 1.22s-1 .77-1.72 1.12-1.59.66-2.62.92c-1.01.25-1.91.4-2.7.43s-1.47-.03-2.03-.17c-.57-.15-1.01-.37-1.33-.67s-.53-.63-.63-1.01c-.1-.39-.08-.8.07-1.21.14-.41.43-.83.86-1.23.43-.41.99-.79 1.7-1.15s1.57-.66 2.58-.92c1.03-.26 1.95-.4 2.75-.42s1.49.04 2.05.2c.57.16 1.01.38 1.34.68.32.3.54.64.63 1.04.09.38.07.77-.08 1.19zm1.56-3.68c-.51-.53-1.18-.93-2-1.2s-1.8-.4-2.93-.38-2.4.2-3.8.55-2.6.79-3.6 1.31c-.99.52-1.79 1.09-2.39 1.72s-1 1.29-1.2 1.99-.21 1.4-.03 2.12c.18.71.52 1.33 1.03 1.85s1.18.92 2 1.19 1.8.4 2.92.38c1.12-.01 2.38-.2 3.79-.55s2.61-.79 3.61-1.31 1.8-1.09 2.41-1.71c.6-.62 1-1.28 1.2-1.98s.21-1.41.03-2.12-.53-1.33-1.04-1.86zm-4.95-10.78 1.95 7.76 2.42-.61-3.88-15.41-2.42.61 1.38 5.48-5.2 1.31.55 2.17zm-13.54-4c.86 2.78.94 5.3.24 7.56-.69 2.27-2.08 4.39-4.15 6.37l2.06 1.18c1.21-1.14 2.21-2.4 3.01-3.76.8-1.37 1.36-2.85 1.67-4.44 1.03 1.04 2.19 1.92 3.49 2.65s2.71 1.27 4.24 1.62l1.06-2.09c-1.77-.39-3.34-.99-4.71-1.79s-2.63-1.84-3.79-3.13c0-.76-.04-1.54-.15-2.34-.1-.8-.27-1.62-.5-2.46l-2.47.62z" fill="none" stroke="#231f20" stroke-linecap="round" stroke-linejoin="round"/><g fill="#398841"><path d="m75.18 53.9c-1.39-3.47-2.75-5.91-3.94-7.9l-8.3 4.97-1.52-2.54 11.43-6.84 1.09 1.81c1.29 2.16 2.91 4.87 4.51 8.91zm-.07 3.82c2.1-1.36 4.19-2.8 6.07-4.26l1.54 2.2c-4.05 3.47-8.96 6.54-12.8 8.88l-1.85-2.44c1.23-.74 2.58-1.54 3.97-2.41l-3.94-6.58 3.14-1.88 3.88 6.49zm11.46-11.56-2.99 1.79 6.37 10.65-3.18 1.91-13.34-22.29 3.18-1.91 5.37 8.98 2.99-1.79 1.59 2.66z"/><path d="m104.57 29.82-14.23 5.47-1.05-2.74 5.35-2.06-.87-2.26 3.49-1.34.87 2.26 5.38-2.07 1.05 2.74zm-3.39 12.42c-3.46 1.33-6.63.46-7.65-2.19-1.01-2.63.76-5.4 4.22-6.73 3.49-1.34 6.63-.46 7.64 2.17 1.02 2.66-.72 5.41-4.21 6.75m-1.01-2.64c1.55-.6 2.39-1.61 1.92-2.85-.46-1.21-1.77-1.4-3.32-.81-1.58.6-2.39 1.61-1.93 2.82.48 1.24 1.76 1.44 3.33.83m-2.56 5.89 16.12-6.19 3.1 8.08-3.46 1.33-2.03-5.29-12.65 4.86-1.07-2.79zm16.59-14.5-3.2 1.23 2.34 6.08-3.46 1.33-5.84-15.19 3.46-1.33 2.4 6.24 3.2-1.23z"/><path d="m133.53 18.7c1.82 7.74.71 14.67-7.22 21.11l-2.56-2.41c5.7-4.62 7.56-9.23 6.76-14.95l-8.4 1.98-.68-2.88 12.09-2.85zm6.87-4.4 5.94 25.28-3.64.86-5.95-25.28 3.64-.86z"/><path d="m166.15 23.86.19 1.65 6.98-.8.77 6.7-14.08 1.61.17 1.46 14.75-1.68.32 2.77-18.41 2.1-.77-6.78 14.11-1.61-.16-1.4-14.14 1.61-.31-2.75 7.1-.81-.19-1.65-9.75 1.11-.33-2.91 23.25-2.65.33 2.91-9.81 1.12zm6.98-4.82c-4.5.03-7.87-1.29-9.76-3.46-1.35 2.54-4.37 4.59-8.76 5.57l-1.52-2.64c5.72-1.22 8.21-4.14 7.93-6.64l-.05-.48 3.8-.43.06.48c.29 2.49 3.38 4.78 9.22 4.68l-.91 2.91z"/><path d="m197.32 23.85c-2.82-.9-4.78-2.72-5.92-4.99-1.1 2.63-3.13 4.77-6.13 5.81l-1.91-2.91c4.09-1.48 5.94-4.79 6.03-8.04l-5.09.05-.03-2.99 13.91-.13.03 2.99-5.03.04c.14 2.96 1.97 5.99 5.91 7.25zm8.01 6.18c.03 3.16-3.33 5.02-8.81 5.07-5.51.05-8.9-1.75-8.93-4.91s3.33-5.02 8.83-5.07c5.48-.05 8.87 1.75 8.9 4.91m-3.7.04c-.01-1.47-1.79-2.16-5.16-2.12-3.4.03-5.17.75-5.15 2.22.01 1.47 1.79 2.15 5.19 2.12 3.37-.03 5.14-.75 5.12-2.22m-.25-14.75-.06-6.26 3.71-.03.14 15.45-3.71.03-.06-6.17-3.88.04-.03-3.02 3.88-.04z"/><path d="m237.12 31.64-.3 3-23.33-2.35.3-3 9.79.99.48-4.74-7.33-.74 1.37-13.5 3.66.37-.41 4.01 11.02 1.11.41-4.01 3.64.37-1.37 13.5-7.3-.74-.48 4.74zm-16.43-9.42 11.02 1.11.37-3.62-11.02-1.11z"/><path d="m268.05 31.33-.62 2.84-22.87-5.03.62-2.84 9.61 2.12.35-1.57-6.75-1.49 2.39-10.85 17.4 3.83-.61 2.75-13.81-3.04-.29 1.32 13.23 2.91-.58 2.64-13.23-2.91-.3 1.38 14 3.08-.61 2.75-7.22-1.59-.35 1.57 9.64 2.12zm-4.48 7.53c-.59 2.7-4.12 3.45-9.7 2.22-5.55-1.22-8.44-3.39-7.84-6.09.6-2.73 4.13-3.45 9.67-2.23 5.57 1.23 8.47 3.37 7.87 6.09m-3.65-.79c.23-1.05-1.29-1.84-4.81-2.62-3.49-.77-5.2-.68-5.43.36-.23 1.05 1.29 1.87 4.77 2.64 3.51.77 5.24.66 5.47-.38"/><path d="m293.13 49.63-1.02 2.78-16.8-6.13 2.87-7.87 3.49 1.27-1.86 5.09 13.31 4.86zm-5.11-9.88c-2.36-1.91-3.55-4.39-3.77-7.05-2.01 2.06-4.63 3.35-7.82 3.3l-.75-3.43c4.54.1 7.54-2.68 8.72-5.91l.87-2.39 3.54 1.29-.87 2.38c-1.17 3.21-.62 6.95 2.87 9.67l-2.79 2.13zm5.74 6.26-3.51-1.28 6.49-17.77 3.51 1.28z"/><path d="m322.8 60.14-8.65-4.91-4 7.04-3.23-1.83 4-7.04-8.51-4.83 1.46-2.57 20.39 11.58-1.46 2.57zm.25-6.08-15.64-8.89 5.69-10.01 3.2 1.82-1.46 2.57 9.27 5.26 1.46-2.58 3.18 1.81-5.69 10zm-.39-6.71-9.26-5.26-1.32 2.33 9.26 5.26z"/></g><path d="m124.05 149.73h-12.31l-1.74-40.42-26.07 40.42h-12.33l-.1-66.62h15.38l-.97 42.01 26.45-42.01h11.05l1.15 42.01 24.44-42.01h15.39z" fill="#fff" fill-rule="evenodd"/><path d="m174.45 150.26.23-11.82h-18.6l-6.52 11.82h-17.84l40.16-66.79h17.6l2.82 66.79zm1.14-47.11-13.71 24.31h13.42z" fill="#fff" fill-rule="evenodd"/><path d="m0 0h390.65v275.6h-390.65z" fill="none"/><path d="m31.59 223.64c-.17 0-.33-.06-.46-.17l-8.91-7.52c-.3-.25-.34-.7-.08-1l3.82-4.53c.12-.14.29-.23.48-.25h.03s1.4-1.66 1.4-1.66c-.26-.21-.51-.43-.75-.63l-1.43-1.21c-.3-.25-.34-.7-.08-1l1.19-1.41c.12-.14.29-.23.48-.25h.06c.17 0 .33.06.46.17 0 0 1.43 1.2 1.43 1.21-.36-1.16-.15-2.35.7-3.35.7-.83 1.69-1.29 2.78-1.29 1.03 0 2.09.42 2.99 1.17 1.55 1.31 2.11 3.16 1.55 4.7l1.26-1.5c.12-.14.29-.23.48-.25h.06c.17 0 .33.06.46.17l1.63 1.38c.17.14.25.34.25.54.09-.05.18-.08.28-.08h.06c.17 0 .33.06.46.17l1.65 1.39c.3.25.34.7.08 1l-7.36 8.73c-.07.08-.16.15-.26.2-.02.1-.07.21-.15.29l-4 4.74c-.12.14-.29.23-.48.25-.02 0-.04 0-.06 0zm1.27-6.92.17-.2c-.11-.03-.21-.08-.3-.15l-1.63-1.38c-.3-.25-.34-.7-.08-1l.1-.12-1.41-1.19c-.16-.14-.25-.33-.25-.53l-.25.3c-.07.08-.16.15-.26.19-.03.07-.07.13-.12.2l-.23.27 4.27 3.6zm1.06-7.75c.3.2.58.39.86.56l.86-1.02c-.52.3-1.1.46-1.71.46zm-.84-4.87c-.22 0-.37.12-.46.23-.1.12-.39.47.22.98.23.19.44.29.63.29.06 0 .22 0 .41-.22.26-.31.17-.71-.22-1.04-.19-.16-.39-.25-.57-.25z" fill="#fff"/><path d="m32.69 201.46c.84 0 1.73.33 2.53 1.01 1.63 1.38 1.99 3.41.85 4.77-.58.68-1.33 1.02-2.14 1.02s-1.76-.37-2.62-1.09c-1.69-1.43-2.03-3.28-.85-4.67.58-.69 1.38-1.04 2.24-1.04m.76 4.86c.37 0 .69-.17.95-.47.48-.57.44-1.41-.3-2.04-.34-.28-.69-.41-1.03-.41-.39 0-.75.17-1 .48-.49.58-.46 1.34.3 1.98.38.32.75.46 1.08.46m-6.14-1.6 1.42 1.19c1.55 1.3 3.74 3 5.68 4.22l-1.16 1.38c-.88-.53-1.77-1.16-2.67-1.81l-1.93 2.29-1.63-1.38 1.86-2.2c-.47-.37-.9-.74-1.31-1.08l-1.43-1.21 1.19-1.41m11.69.87 1.63 1.38-7.48 8.87-1.63-1.38.55-.66-1.95-1.65 1.06-1.25 1.95 1.65zm2.68 2 1.65 1.39-7.36 8.73-1.65-1.39zm-15.22 3.3 1.78 1.5-.68.81 5.35 4.52.86-1.02 1.78 1.5-4 4.74-8.91-7.52zm4.52 9.13.79-.93-5.37-4.53-.79.93zm1.68-19.97c-1.3 0-2.48.55-3.32 1.54-.56.66-.89 1.41-.99 2.18l-.14-.12c-.26-.22-.58-.33-.91-.33-.04 0-.08 0-.12 0-.37.03-.72.21-.96.5l-1.19 1.41c-.5.6-.43 1.49.17 2l1.43 1.21c.07.06.14.12.22.18l-.78.93c-.26.08-.5.23-.67.44l-3.82 4.53c-.5.6-.43 1.49.17 2l8.91 7.52c.26.22.58.33.91.33h.12c.37-.03.72-.21.96-.5l4-4.74c.07-.08.13-.18.18-.27.09-.06.16-.14.23-.22l7.36-8.73c.5-.6.43-1.49-.17-2l-1.65-1.39c-.22-.19-.5-.3-.78-.33-.07-.11-.16-.21-.26-.29l-1.63-1.38c-.26-.22-.58-.33-.91-.33-.04 0-.08 0-.12 0-.32.03-.61.16-.85.37-.22-1.14-.88-2.27-1.94-3.16-1.03-.87-2.25-1.34-3.45-1.34z" fill="#231f20"/><path d="m45.31 233.68c-.14 0-.28-.04-.4-.13l-1.87-1.29c-.15-.11-.26-.27-.29-.46-.03-.18 0-.38.11-.53l2-2.9c-2.26-1.14-5.12-2.87-7.55-4.55l-1.99-1.38c-.15-.11-.26-.27-.29-.46-.03-.18 0-.38.11-.53l1.18-1.71c.14-.2.36-.31.58-.31.14 0 .28.04.4.13l1.98 1.37c.39.27.8.55 1.23.84l.81-1.17c-1.33-1.79-1.37-4.16-.06-6.06 1.02-1.48 2.59-2.33 4.32-2.33 1.08 0 2.15.34 3.08.99 1.19.82 1.99 2.03 2.24 3.39.26 1.37-.06 2.79-.89 3.99-1.01 1.45-2.55 2.29-4.25 2.29-.44 0-.87-.06-1.3-.17l-.75 1.09c1.05.63 2.14 1.23 3.11 1.73l6.57-9.51c.14-.2.36-.31.58-.31.14 0 .28.04.4.13l1.87 1.29c.15.11.26.27.29.46.03.18 0 .38-.11.53l-3.62 5.24 1.54 1.06c.15.11.26.27.29.46.03.18 0 .38-.11.53l-1.18 1.71c-.14.2-.36.31-.58.31-.14 0-.28-.04-.4-.13l-1.54-1.06-4.93 7.13c-.14.2-.36.31-.58.31zm.52-17.92c-.52 0-1.04.33-1.46.94-.65.94-.56 1.77.26 2.33.32.22.63.33.94.33.62 0 1.09-.48 1.37-.89.34-.5.49-.99.44-1.41-.05-.39-.28-.73-.69-1.01-.28-.19-.57-.29-.86-.29z" fill="#fff"/><path d="m45.58 212.93c.91 0 1.84.28 2.68.86 2.14 1.48 2.67 4.23 1.17 6.4-.91 1.31-2.26 1.98-3.66 1.98-.53 0-1.07-.1-1.59-.29l-1.48 2.14c1.29.79 2.64 1.55 3.85 2.18l-1.15 1.66c-2.4-1.2-5.39-3.02-7.69-4.61l-1.99-1.38 1.18-1.71 1.98 1.37c.57.39 1.18.81 1.82 1.23l1.51-2.19c-1.42-1.54-1.63-3.78-.36-5.62.92-1.33 2.3-2.02 3.73-2.02m0 7.14c.71 0 1.4-.39 1.95-1.2.92-1.33.7-2.63-.43-3.41-.4-.28-.83-.42-1.27-.42-.73 0-1.46.41-2.04 1.24-.91 1.32-.66 2.56.44 3.32.44.3.89.46 1.34.46m8.41-3.63 1.87 1.29-4.02 5.82 2.12 1.46-1.18 1.71-2.12-1.46-5.33 7.71-1.87-1.29 10.54-15.25m-8.41-4.91c-1.96 0-3.74.96-4.9 2.63-1.39 2.01-1.44 4.49-.22 6.46l-.14.2c-.22-.15-.43-.3-.64-.44l-1.98-1.37c-.25-.17-.53-.25-.8-.25-.45 0-.89.21-1.17.61l-1.18 1.71c-.21.31-.3.69-.23 1.06s.28.7.59.91l1.99 1.38c2.2 1.52 4.76 3.08 6.91 4.22l-1.55 2.24c-.21.31-.3.69-.23 1.06s.28.7.59.91l1.87 1.29c.25.17.53.25.8.25.45 0 .89-.21 1.17-.61l4.53-6.55.95.66c.25.17.53.25.8.25.45 0 .89-.21 1.17-.61l1.18-1.71c.21-.31.3-.69.23-1.06s-.28-.7-.59-.91l-.95-.66 3.22-4.66c.21-.31.3-.69.23-1.06s-.28-.7-.59-.91l-1.87-1.29c-.25-.17-.53-.25-.8-.25-.45 0-.89.21-1.17.61l-1.12 1.62c-.01-.26-.04-.52-.09-.77-.29-1.55-1.19-2.91-2.54-3.84-1.05-.73-2.26-1.11-3.49-1.11zm0 7.14c-.16 0-.34-.07-.54-.21-.24-.17-.69-.47-.08-1.35.28-.4.6-.63.88-.63.14 0 .3.06.46.17.23.16.36.34.39.52.03.24-.08.57-.32.91-.15.22-.45.58-.79.58zm.19 4.94c.59 0 1.17-.09 1.72-.26l-.89 1.29c-.6-.32-1.24-.67-1.87-1.04l.05-.08c.33.06.66.08.99.08z" fill="#231f20"/><path d="m61.42 243.17c-.12 0-.24-.03-.35-.09l-2.04-1.16c-.16-.09-.28-.25-.33-.43s-.02-.38.07-.54l2.16-3.78-1.44.48c-.07.02-.15.04-.22.04-.29 0-.55-.17-.66-.45-.64-1.66-1.02-3.01-1.22-4.35-1.77.57-3.69.87-5.74.87-.34 0-.62-.24-.69-.56l-.46-2.2c-.04-.21.01-.43.15-.6.13-.16.33-.25.54-.25h.46c3.08 0 6.22-.97 7.9-2.38-.67-.37-1.51-.85-2.32-1.31l-1.77-1.01c-.16-.09-.28-.25-.33-.43s-.02-.38.07-.54l1.03-1.81c.13-.23.37-.36.62-.36.12 0 .24.03.35.09l.82.47c-.04-.17 0-.35.08-.5l1.04-1.82c.13-.23.37-.36.62-.36.12 0 .24.03.35.09l5.03 2.87c.16.09.28.25.33.43s.02.38-.07.54l-1.04 1.82c-.08.14-.21.25-.35.31.17.09.35.19.52.29.18.1.3.27.35.46.05.2 0 .4-.11.57-1.05 1.48-2.37 2.73-3.93 3.71.15 1.49.53 2.75 1.11 4.16l6.04-10.58c.13-.23.37-.36.62-.36.12 0 .24.03.35.09l2.04 1.16c.16.09.28.25.33.43s.02.38-.07.54l-9.19 16.1c-.13.23-.37.36-.62.36z" fill="#fff"/><path d="m59.73 220.89 5.03 2.87-1.04 1.82-5.03-2.87zm-2.91 2.12 2.6 1.49c1.41.8 2.85 1.63 4.73 2.65-1.15 1.62-2.54 2.83-4.09 3.74.13 2.01.65 3.55 1.41 5.34l-2.22.74c-.68-1.77-1.13-3.34-1.29-5.06-2.06.8-4.25 1.12-6.34 1.13l-.46-2.2h.46c3.8 0 7.52-1.37 9.08-3.27-.7-.35-1.94-1.06-3.17-1.76l-1.74-.99zm11.75 2.19 2.04 1.16-9.19 16.1-2.04-1.16zm-8.84-5.73c-.49 0-.97.26-1.23.71l-.92 1.62-.05-.03c-.22-.13-.46-.19-.7-.19-.49 0-.97.26-1.23.71l-1.03 1.81c-.19.33-.24.71-.14 1.08.1.36.34.67.66.86l1.74.99c.47.27.94.53 1.37.78-1.53.9-3.88 1.61-6.57 1.61-.14 0-.28 0-.42 0-.01 0-.03 0-.04 0-.42 0-.82.19-1.09.51-.28.33-.39.78-.3 1.2l.46 2.2c.14.66.72 1.13 1.39 1.13 1.83 0 3.56-.23 5.18-.67.23 1.14.59 2.32 1.12 3.7.22.56.75.91 1.32.91h.16l-1.27 2.22c-.19.33-.24.71-.14 1.08.1.36.34.67.66.86l2.04 1.16c.22.13.46.19.7.19.49 0 .97-.26 1.23-.71l9.19-16.1c.19-.33.24-.71.14-1.08-.1-.36-.34-.67-.66-.86l-2.04-1.16c-.22-.13-.46-.19-.7-.19-.49 0-.97.26-1.23.71l-5.29 9.26c-.23-.7-.39-1.39-.49-2.13 1.48-.99 2.74-2.22 3.76-3.66.23-.33.31-.74.22-1.14-.07-.3-.24-.57-.47-.77l.91-1.6c.19-.33.24-.71.14-1.08-.1-.36-.34-.67-.66-.86l-5.03-2.87c-.22-.13-.46-.19-.7-.19z" fill="#231f20"/><path d="m71.23 248.39c-.11 0-.21-.02-.31-.07l-1.73-.86c-.18-.09-.31-.25-.37-.45-.98-3.55-.67-7.75.79-10.69 1.52-3.07 4.45-5.68 8.03-7.15.09-.04.18-.05.27-.05.11 0 .22.03.31.07l1.73.85c.24.12.39.36.39.62s-.14.51-.38.64c-3.29 1.75-5.48 3.89-6.88 6.73-1.32 2.66-1.69 5.78-1.15 9.54.04.26-.07.52-.29.67-.12.09-.27.14-.42.14z" fill="#fff"/><path d="m77.9 229.83 1.73.85c-3.84 2.05-5.92 4.48-7.19 7.04s-1.83 5.72-1.22 9.95l-1.73-.86c-.86-3.13-.76-7.16.74-10.19 1.53-3.1 4.46-5.49 7.67-6.81m0-1.39c-.18 0-.37.04-.54.11-3.74 1.54-6.8 4.26-8.4 7.49-1.55 3.14-1.87 7.43-.83 11.19.11.39.38.71.74.89l1.73.86c.2.1.41.15.63.15.29 0 .59-.09.83-.27.43-.31.65-.83.57-1.35-.52-3.61-.17-6.59 1.09-9.12 1.33-2.7 3.43-4.74 6.58-6.42.47-.25.76-.74.75-1.27 0-.53-.31-1.01-.79-1.25l-1.73-.85c-.2-.1-.41-.15-.63-.15z" fill="#231f20"/><path d="m85.87 252.35c-.09 0-.19-.02-.28-.06l-2.34-.99c-.31-.13-.48-.46-.42-.78l1.73-9.09-5.34 7.56c-.14.19-.35.3-.58.3-.09 0-.19-.02-.28-.06l-2.34-.99c-.3-.13-.48-.45-.42-.77l2.63-15.68c.04-.21.17-.4.36-.5.11-.06.22-.09.34-.09.09 0 .19.02.28.06l2.27.96c.31.13.48.46.42.79l-1.78 8.77 5.17-7.34c.14-.19.35-.3.58-.3.09 0 .19.02.28.06l2.53 1.07c.31.13.48.46.42.79l-1.68 8.82 5.06-7.37c.14-.2.36-.31.58-.31.09 0 .19.02.28.06l2.27.96c.2.08.35.26.41.47s.02.43-.11.61l-9.45 12.79c-.14.19-.35.29-.57.29z" fill="#fff"/><path d="m78.93 231.9 2.27.96-2.2 10.8-.38 1.58.87-1.37 6.36-9.03 2.53 1.07-2.07 10.86-.38 1.58.87-1.37 6.24-9.09 2.27.96-9.45 12.79-2.34-.99 2.1-11.06.38-1.58-.87 1.37-6.49 9.2-2.34-.99 2.63-15.68m0-1.43c-.24 0-.47.06-.68.17-.38.21-.64.58-.72 1.01l-2.63 15.68c-.11.65.24 1.28.84 1.54l2.34.99c.18.08.37.11.55.11.45 0 .89-.21 1.16-.6l3.45-4.89-1.12 5.88c-.12.66.22 1.31.84 1.57l2.34.99c.18.08.37.11.55.11.44 0 .87-.2 1.14-.58l9.45-12.79c.26-.35.34-.8.23-1.22s-.41-.76-.81-.93l-2.27-.96c-.18-.08-.37-.11-.55-.11-.46 0-.9.22-1.17.61l-3.15 4.58 1.05-5.49c.13-.66-.22-1.31-.84-1.57l-2.53-1.07c-.18-.08-.37-.11-.55-.11-.45 0-.89.21-1.16.6l-3.22 4.57 1.11-5.45c.13-.66-.21-1.32-.83-1.59l-2.27-.96c-.18-.08-.37-.11-.55-.11z" fill="#231f20"/><path d="m97.59 256.51c-.86 0-1.82-.18-2.77-.52-1.63-.58-2.82-1.67-3.43-3.13-.61-1.47-.59-3.21.07-5.05 1.03-2.87 3.25-4.65 5.81-4.65.65 0 1.31.12 1.96.35 3.22 1.16 4.29 4.01 2.92 7.83l-.27.75c-.06.18-.19.32-.36.4-.1.04-.2.07-.3.07-.08 0-.16-.01-.24-.04l-6.32-2.26c-.14 1.02.11 2.1 1.56 2.62.42.15.86.22 1.32.22.67 0 1.37-.16 2.03-.46.09-.04.26-.08.36-.08.28 0 .54.14.7.37.17.24.21.54.11.82l-.67 1.86c-.05.15-.16.28-.29.36-.58.36-1.31.54-2.18.54zm1.46-8.21c.06-.37.04-.68-.05-.94-.14-.36-.43-.62-.89-.78-.17-.06-.36-.09-.54-.09-.54 0-1.07.27-1.53.74l3.01 1.08z" fill="#fff"/><path d="m97.28 243.86c.56 0 1.14.1 1.72.31 2.86 1.02 3.7 3.54 2.49 6.92l-.27.75-7.06-2.53-.02.06c-.63 2.11.15 3.56 1.85 4.17.51.18 1.04.27 1.56.27.8 0 1.59-.19 2.33-.53.02-.01.04-.02.06-.02.1 0 .18.11.14.24l-.67 1.86c-.47.3-1.1.43-1.81.43-.78 0-1.66-.17-2.53-.48-2.89-1.04-4.17-3.83-2.93-7.27.94-2.63 2.93-4.18 5.15-4.18m2.24 5.37.02-.06c.58-1.62.11-2.79-1.21-3.26-.25-.09-.52-.14-.78-.14-.98 0-1.98.62-2.65 1.78v.02s4.61 1.65 4.61 1.65m-2.24-6.78c-2.87 0-5.35 1.96-6.48 5.12-.72 2.01-.74 3.93-.06 5.56s2.04 2.88 3.84 3.52c1.03.37 2.07.57 3.01.57 1.01 0 1.87-.22 2.56-.65.27-.17.48-.42.58-.72l.67-1.86c.09-.24.11-.49.08-.74.11-.02.22-.06.33-.11.34-.16.6-.45.73-.8l.27-.75c1.5-4.18.25-7.45-3.34-8.74-.72-.26-1.46-.39-2.19-.39zm.26 9.95c-.38 0-.75-.06-1.08-.18-.43-.15-.88-.4-1.06-.94l2.91 1.04c-.26.05-.51.08-.77.08z" fill="#231f20"/><path d="m107.32 259.8c-.51 0-1.03-.08-1.54-.24-.75-.23-1.38-.65-1.83-1.2-.13.15-.33.24-.53.24-.07 0-.14-.01-.21-.03l-2.15-.67c-.18-.06-.33-.18-.42-.35s-.11-.36-.05-.54l4.92-15.82c.09-.3.37-.5.68-.5.07 0 .14.01.21.03l2.26.7c.18.06.33.18.42.35s.11.36.05.54l-1.45 4.66c.31-.07.64-.11.97-.11.48 0 .97.08 1.45.22 1.32.41 2.34 1.33 2.85 2.59.54 1.34.52 3.04-.06 4.92-1.02 3.3-3.05 5.19-5.56 5.19zm.89-9.68c-.91 0-1.76.78-2.12 1.94l-.53 1.72c-.2.65-.2 1.22 0 1.64.23.46.67.68 1 .78.16.05.32.08.47.08 1.11 0 1.81-1.51 2.21-2.78.31-.98.38-1.82.22-2.42-.12-.47-.39-.77-.81-.9-.14-.04-.29-.07-.44-.07z" fill="#fff"/><path d="m106.18 241.4 2.26.7-1.91 6.13h.02c.64-.46 1.36-.66 2.09-.66.42 0 .84.07 1.24.19 2.17.67 3.47 2.94 2.32 6.63-.99 3.2-2.86 4.69-4.88 4.69-.44 0-.89-.07-1.33-.21-1.06-.33-1.86-1.1-2.06-2.19h-.04s-.48 1.2-.48 1.2l-2.15-.67 4.92-15.82m.85 15.59c1.19 0 2.2-1.07 2.88-3.28.71-2.29.26-3.79-1.05-4.2-.21-.07-.43-.1-.65-.1-1.17 0-2.33.93-2.8 2.44l-.53 1.72c-.55 1.76.18 2.9 1.47 3.31.23.07.46.11.68.11m-.85-16.99c-.6 0-1.16.39-1.35 1l-4.92 15.82c-.11.36-.08.75.1 1.08.17.33.47.58.83.69l2.15.67c.14.04.28.06.42.06s.28-.02.41-.06c.48.44 1.07.77 1.75.98.58.18 1.17.27 1.75.27 2.84 0 5.11-2.07 6.23-5.69.63-2.04.65-3.91.04-5.4-.59-1.46-1.76-2.53-3.3-3-.54-.17-1.09-.25-1.64-.26l1.13-3.63c.11-.36.08-.75-.1-1.08-.17-.33-.47-.58-.83-.69l-2.26-.7c-.14-.04-.28-.06-.42-.06zm.85 15.58c-.08 0-.16-.02-.26-.05-.29-.09-.48-.23-.58-.42-.12-.25-.11-.64.04-1.11l.53-1.72c.29-.95.95-1.45 1.44-1.45.08 0 .16.01.23.04.13.04.26.1.34.4.07.27.14.89-.22 2.03-.44 1.41-1.02 2.28-1.53 2.28z" fill="#231f20"/><path d="m125.11 264.61c-.06 0-.12 0-.17-.02l-2.46-.62c-.32-.08-.55-.38-.54-.71l.3-9.25-4.1 8.29c-.12.25-.37.39-.63.39-.06 0-.12 0-.17-.02l-2.46-.62c-.32-.08-.54-.37-.54-.7l.17-15.89c0-.22.1-.42.28-.55.13-.1.28-.15.43-.15.06 0 .12 0 .17.02l2.39.6c.33.08.55.38.54.72l-.41 8.93 3.97-8.04c.12-.25.37-.4.64-.4.06 0 .12 0 .17.02l2.67.67c.32.08.55.38.54.71l-.3 8.97 3.86-8.06c.12-.25.37-.4.64-.4.06 0 .12 0 .17.02l2.39.6c.21.05.38.2.47.4s.08.43-.02.62l-7.35 14.09c-.12.24-.37.38-.63.38z" fill="#fff"/><path d="m115.21 245.47 2.39.6-.5 11.01-.13 1.62.65-1.49 4.89-9.91 2.67.67-.37 11.04-.13 1.62.65-1.49 4.76-9.94 2.39.6-7.35 14.09-2.46-.62.36-11.25.13-1.62-.65 1.49-4.99 10.08-2.46-.62.17-15.89m-.02-1.4c-.31 0-.61.1-.87.29-.34.27-.55.67-.55 1.11l-.17 15.89c0 .66.44 1.23 1.07 1.39l2.46.62c.12.03.23.04.35.04.53 0 1.03-.3 1.27-.79l2.65-5.36-.19 5.98c-.02.67.42 1.26 1.07 1.42l2.46.62c.12.03.23.04.35.04.52 0 1.01-.29 1.26-.76l7.35-14.09c.2-.38.21-.84.04-1.24-.18-.4-.53-.69-.95-.79l-2.39-.6c-.12-.03-.23-.04-.35-.04-.54 0-1.04.3-1.28.81l-2.4 5.01.19-5.58c.02-.67-.42-1.26-1.07-1.42l-2.67-.67c-.12-.03-.23-.04-.35-.04-.53 0-1.03.3-1.27.79l-2.47 5.01.25-5.55c.03-.67-.42-1.27-1.07-1.44l-2.39-.6c-.11-.03-.23-.04-.35-.04z" fill="#231f20"/><path d="m138.15 267.3s-.09 0-.14-.01l-2.06-.41c-.33-.07-.57-.36-.57-.69-.57.24-1.18.37-1.81.37-.3 0-.59-.03-.88-.09-1.31-.26-2.27-.82-2.86-1.67-.58-.84-.76-1.93-.52-3.16.46-2.33 2.27-3.72 4.84-3.72l2.57.06c.02-.28 0-.48-.07-.61-.03-.06-.14-.25-.76-.37-.26-.05-.5-.08-.74-.08-.78 0-1.61.27-2.59.84-.11.06-.32.12-.44.12-.26 0-.5-.11-.66-.31-.17-.21-.24-.48-.18-.75l.42-2.12c.04-.22.19-.41.4-.51 1.08-.49 2.13-.72 3.23-.72.52 0 1.07.06 1.62.16 2.91.58 4.02 2.4 3.39 5.58l-1.49 7.52c-.07.34-.36.57-.69.57zm-3.63-6.24c-.84 0-1.34.37-1.49 1.11-.06.29-.03.52.07.66.14.19.44.29.66.33.09.02.18.03.28.03.9 0 1.87-.77 2.04-1.62l.08-.43-1.65-.08z" fill="#fff"/><path d="m135.32 254.18c.47 0 .96.05 1.48.15 2.51.5 3.38 1.97 2.83 4.74l-1.49 7.52-2.06-.41.16-1.38h-.02c-.68.65-1.64 1.05-2.66 1.05-.25 0-.5-.02-.75-.07-2.27-.45-3.24-1.91-2.82-4.01.4-2.01 1.89-3.15 4.15-3.15h.25l2.92.07.02-.1c.27-1.37-.02-2.04-1.31-2.3-.29-.06-.58-.09-.88-.09-.87 0-1.8.27-2.95.94-.03.02-.06.02-.09.02-.1 0-.17-.09-.15-.21l.42-2.12c.93-.42 1.89-.66 2.94-.66m-1.27 9.73c1.22 0 2.5-.99 2.74-2.19l.25-1.24-2.31-.11c-.07 0-.13 0-.19 0-1.17 0-1.97.6-2.18 1.68-.2 1.02.3 1.63 1.29 1.83.14.03.27.04.41.04m1.27-11.15c-1.2 0-2.36.26-3.53.79-.42.19-.72.57-.81 1.02l-.42 2.12c-.09.48.02.96.33 1.33 0 0 0 .01.01.02-1.19.73-2 1.92-2.31 3.46-.28 1.42-.06 2.7.63 3.71.69.99 1.83 1.67 3.31 1.96.34.07.68.1 1.02.1.48 0 .96-.07 1.42-.19.2.25.49.43.82.5l2.06.41c.09.02.19.03.28.03.66 0 1.25-.47 1.39-1.14l1.49-7.52c.89-4.47-1.66-5.95-3.95-6.41-.6-.12-1.19-.18-1.76-.18zm-1.61 9.65s0-.06.02-.11c.04-.23.11-.54.79-.54h.12l.59.03c-.26.37-.75.68-1.18.68-.05 0-.1 0-.14-.01-.09-.02-.15-.04-.19-.05z" fill="#231f20"/><path d="m144.41 268.52c-.3 0-.6-.03-.91-.08-2.25-.4-3.19-1.79-2.79-4.13l1-5.94-.98-.17c-.19-.03-.35-.13-.46-.29-.11-.15-.15-.34-.12-.53l.32-1.87c.06-.35.36-.59.7-.59.04 0 .08 0 .12.01l.98.16.32-1.9c.03-.18.13-.35.29-.46.12-.09.26-.13.41-.13.04 0 .08 0 .12.01l2.3.39c.39.06.65.43.58.82l-.32 1.9 1.9.32c.19.03.35.13.46.29.11.15.15.34.12.53l-.32 1.87c-.03.18-.13.35-.29.46-.12.09-.26.13-.41.13-.04 0-.08 0-.12-.01l-1.9-.32-.96 5.71c-.04.24-.03.35-.02.39 0 0 .05.01.12.03.12.02.23.03.34.03.29 0 .54-.07.81-.22.12-.08.28-.12.45-.12.25 0 .49.11.65.3.17.19.23.46.19.72l-.29 1.74c-.04.21-.16.39-.34.49-.53.31-1.2.47-1.94.47z" fill="#fff"/><path d="m143.28 253.31 2.3.39-.44 2.6 2.6.44-.32 1.87-2.6-.44-1.08 6.41c-.13.77.08 1.13.68 1.23.16.03.31.04.46.04.43 0 .81-.12 1.16-.32.03-.02.07-.03.1-.03.09 0 .16.08.14.19l-.29 1.73c-.44.26-1 .38-1.59.38-.26 0-.53-.02-.79-.07-1.88-.34-2.53-1.4-2.21-3.31l1.12-6.64-1.68-.28.32-1.87 1.68.28.44-2.6m0-1.42c-.29 0-.58.09-.82.26-.31.22-.51.55-.58.92l-.2 1.21-.28-.05c-.08-.01-.16-.02-.24-.02-.68 0-1.28.49-1.4 1.18l-.32 1.87c-.06.37.02.75.24 1.06s.55.51.92.58l.28.05-.89 5.25c-.46 2.72.73 4.47 3.36 4.94.36.06.7.09 1.04.09.87 0 1.67-.2 2.3-.57.36-.21.61-.57.68-.99l.29-1.73c.08-.47-.05-.94-.35-1.3-.3-.35-.73-.55-1.19-.55-.28 0-.56.08-.81.22-.04.02-.08.04-.12.06l.77-4.56 1.2.2c.08.01.16.02.24.02.29 0 .58-.09.82-.26.31-.22.51-.55.58-.92l.32-1.87c.06-.37-.02-.75-.24-1.06s-.55-.51-.92-.58l-1.2-.2.2-1.2c.13-.77-.39-1.5-1.16-1.63l-2.3-.39c-.08-.01-.16-.02-.24-.02z" fill="#231f20"/><path d="m152.93 269.85c-.33 0-.67-.03-1.04-.08-3.78-.53-5.78-3.35-5.22-7.37.51-3.62 2.81-5.86 6.01-5.86.33 0 .67.02 1.01.07 1.47.21 2.64.82 3.56 1.86.14.15.2.36.17.57l-.3 2.14c-.06.44-.42.75-.85.75-.31 0-.58-.16-.74-.43-.56-.87-1.24-1.32-2.26-1.46-.13-.02-.25-.03-.37-.03-1.78 0-2.26 2.03-2.38 2.9-.44 3.12 1.37 3.38 1.96 3.46.16.02.31.03.46.03.76 0 1.44-.3 2.12-.94.16-.15.37-.24.6-.24.25 0 .48.11.64.29.16.19.24.44.2.7l-.3 2.16c-.03.19-.12.35-.27.47-.9.68-1.85 1-2.99 1z" fill="#fff"/><path d="m152.68 257.25c.3 0 .6.02.92.07 1.27.18 2.29.69 3.13 1.63l-.3 2.14c-.01.09-.08.14-.15.14-.05 0-.1-.03-.13-.08-.66-1.04-1.53-1.63-2.77-1.8-.16-.02-.32-.03-.47-.03-1.74 0-2.8 1.47-3.09 3.51-.33 2.34.45 3.96 2.56 4.26.19.03.38.04.56.04.98 0 1.81-.39 2.6-1.13.03-.03.07-.05.11-.05.08 0 .16.07.14.18l-.3 2.16c-.8.61-1.62.85-2.56.85-.3 0-.61-.02-.94-.07-3.2-.45-5.15-2.72-4.61-6.57.46-3.3 2.49-5.25 5.31-5.25m-.01-1.42c-3.58 0-6.15 2.48-6.71 6.47-.61 4.38 1.67 7.58 5.82 8.17.41.06.78.08 1.14.08 1.29 0 2.4-.37 3.42-1.14.3-.23.5-.56.55-.93l.3-2.16c.06-.46-.07-.92-.37-1.26s-.72-.54-1.18-.54c-.4 0-.79.16-1.09.44-.54.51-1.05.74-1.63.74-.11 0-.24 0-.36-.03-.55-.08-1.7-.24-1.36-2.66.1-.69.45-2.29 1.68-2.29.09 0 .18 0 .27.02.81.11 1.32.45 1.78 1.16.26.44.78.74 1.33.74.79 0 1.44-.57 1.55-1.36l.3-2.14c.06-.41-.07-.82-.34-1.13-1.04-1.18-2.34-1.87-3.99-2.1-.38-.05-.75-.08-1.11-.08z" fill="#231f20"/><path d="m166.02 271.12-2.33-.25c-.19-.02-.36-.11-.48-.26s-.17-.33-.15-.52l.75-7.1c.19-1.78-.49-1.85-.99-1.91-.05 0-.1 0-.15 0-1 0-1.77 1.04-1.94 2.6l-.64 6.11c-.02.19-.11.36-.26.48-.13.1-.28.16-.45.16-.02 0-.05 0-.07 0l-2.33-.25c-.39-.04-.67-.39-.63-.78l1.73-16.47c.04-.36.35-.63.7-.63h.07l2.35.25c.19.02.36.11.48.26s.17.33.15.52l-.53 5c.63-.33 1.32-.5 2.01-.5.15 0 .29 0 .44.02 1.62.17 4.26 1.13 3.78 5.68l-.73 6.98c-.04.36-.35.63-.7.63-.02 0-.05 0-.08 0z" fill="#fff"/><path d="m158.78 252.98 2.35.25-.7 6.63h.02c.69-.76 1.71-1.35 2.86-1.35.12 0 .24 0 .37.02 2.37.25 3.47 1.85 3.15 4.9l-.73 6.98-2.33-.25.75-7.1c.19-1.85-.44-2.56-1.62-2.69-.08 0-.15-.01-.23-.01-1.29 0-2.43 1.16-2.64 3.23l-.64 6.11-2.33-.25 1.73-16.47m-.02-1.41c-.72 0-1.33.54-1.41 1.27l-1.73 16.47c-.08.78.48 1.48 1.26 1.56l2.33.25s.1 0 .15 0c.32 0 .64-.11.89-.32.29-.24.48-.58.52-.95l.64-6.11c.12-1.16.63-1.96 1.23-1.96h.08c.22.02.29.07.29.07s.15.22.06 1.06l-.75 7.1c-.04.37.07.75.31 1.04s.58.48.95.52l2.33.25h.15c.72 0 1.33-.54 1.41-1.27l.73-6.98c.56-5.35-2.9-6.3-4.41-6.46-.17-.02-.34-.03-.51-.03-.4 0-.8.05-1.18.15l.41-3.86c.04-.37-.07-.75-.31-1.04s-.58-.48-.95-.52l-2.35-.25c-.05 0-.1 0-.15 0z" fill="#231f20"/><path d="m167.33 273.46c-.26-.02-.49-.18-.6-.42s-.07-.52.1-.73c2.37-2.96 3.62-5.84 3.84-8.81.23-3.16-.58-6.11-2.53-9.29-.14-.23-.14-.51 0-.74.13-.21.36-.34.61-.34.02 0 1.97.14 1.97.14.2.01.39.12.51.28 2.35 3.08 3.55 6.81 3.31 10.23-.23 3.27-2.09 7.05-4.74 9.62-.13.13-.31.2-.49.2-.02 0-1.97-.14-1.97-.14z" fill="#fff"/><path d="m168.74 253.85 1.92.14c2.1 2.76 3.41 6.3 3.17 9.75-.24 3.37-2.2 6.9-4.52 9.16l-1.92-.14c2.67-3.34 3.79-6.34 3.99-9.2.21-2.85-.35-6-2.63-9.71m-.01-1.42c-.49 0-.95.26-1.21.68-.28.45-.27 1.02 0 1.48 1.87 3.05 2.64 5.86 2.43 8.87-.2 2.82-1.41 5.57-3.68 8.41-.33.41-.4.97-.19 1.45s.67.81 1.2.85l1.92.14s.07 0 .1 0c.37 0 .72-.14.99-.4 2.8-2.72 4.7-6.58 4.95-10.07.26-3.59-1-7.49-3.45-10.71-.25-.32-.62-.53-1.03-.55l-1.92-.14s-.07 0-.1 0z" fill="#231f20"/><path d="m181.46 272.1c-.39 0-.7-.33-.69-.73l.05-1.88c0-.17.07-.33.19-.46l4.58-4.98c1.9-2.06 2.18-3.16 2.2-4.04.03-1-.45-1.5-1.45-1.53-1.15 0-2.29.54-3.38 1.55-.19.16-.39.24-.6.24-.19 0-.46-.11-.59-.25-.17-.17-.25-.4-.25-.65l.05-1.96c0-.19.09-.38.23-.51 1.27-1.15 2.95-1.82 4.59-1.82h.16c3.29.08 5.13 1.91 5.05 5.02-.06 2.34-1.83 4.47-3.16 5.87l-2.64 2.81 5.08.13c.39 0 .7.33.69.73l-.05 2c0 .19-.08.37-.22.5-.13.12-.31.2-.49.2 0 0-9.35-.24-9.35-.24z" fill="#fff"/><path d="m186.38 255.8s.1 0 .15 0c2.84.07 4.43 1.49 4.36 4.29-.05 1.88-1.37 3.72-2.96 5.4l-3.69 3.93v.04s6.62.17 6.62.17l-.05 2-9.33-.24.05-1.88 4.58-4.98c1.87-2.03 2.36-3.28 2.39-4.5.03-1.28-.65-2.22-2.14-2.25-.03 0-.07 0-.1 0-1.23 0-2.53.57-3.78 1.74-.04.03-.08.05-.11.05-.07 0-.13-.06-.13-.17l.05-1.96c1.08-.98 2.55-1.63 4.12-1.63m-.03-1.42c-1.82 0-3.67.73-5.07 2-.29.26-.45.63-.46 1.01l-.05 1.96c-.01.44.15.85.45 1.16.29.3.68.46 1.1.46.37 0 .73-.13 1.02-.38.02-.02.04-.03.06-.05.95-.89 1.92-1.36 2.81-1.36h.07c.54.01.78.13.76.8-.02.74-.28 1.68-2.01 3.58l-4.58 4.98c-.23.25-.36.58-.37.92l-.05 1.88c-.02.78.6 1.43 1.38 1.45l9.33.24s.02 0 .04 0c.36 0 .71-.14.98-.39.27-.26.43-.62.44-.99l.05-2c.02-.78-.6-1.43-1.38-1.45l-3.5-.09 1.56-1.66c1.4-1.48 3.28-3.76 3.35-6.34.09-3.5-2.06-5.65-5.74-5.74h-.18z" fill="#231f20"/><path d="m197.49 272.63c-3.69 0-5.59-2.92-5.66-8.67-.03-2.91.4-5.03 1.33-6.51.94-1.49 2.35-2.26 4.21-2.28 3.76 0 5.67 2.92 5.73 8.67.03 2.91-.4 5.03-1.33 6.51-.94 1.49-2.35 2.26-4.21 2.28 0 0-.07 0-.08 0zm-.09-14.07c-1.61.02-1.81 3.36-1.79 5.35.02 1.98.3 5.31 1.9 5.31 1.62-.02 1.83-3.36 1.8-5.35-.02-1.98-.3-5.31-1.9-5.31v-.71l-.02.71z" fill="#fff"/><path d="m197.44 255.88c3.09 0 4.89 2.41 4.95 7.97.06 5.6-1.7 8.04-4.83 8.08-.02 0-.05 0-.07 0-3.09 0-4.89-2.41-4.95-7.97-.06-5.6 1.7-8.04 4.83-8.08zm.07 14.06s.02 0 .02 0c1.6-.02 2.54-1.83 2.49-6.07-.05-4.22-1.01-6.01-2.6-6.01h-.02c-1.6.02-2.54 1.83-2.49 6.07.05 4.22 1.01 6.01 2.6 6.01m-.07-15.48h-.08c-2.08.02-3.74.93-4.8 2.62-1 1.59-1.47 3.85-1.44 6.9.09 7.74 3.51 9.37 6.37 9.37h.08c2.08-.02 3.74-.93 4.8-2.62 1-1.59 1.47-3.85 1.44-6.9-.09-7.74-3.51-9.37-6.37-9.37zm.07 15.48v-1.42c-.55 0-1.15-1.44-1.19-4.61-.04-3.18.54-4.63 1.09-4.64.55 0 1.16 1.44 1.19 4.61.04 3.18-.54 4.63-1.09 4.64z" fill="#231f20"/><path d="m204.36 272.2c-.18 0-.35-.07-.48-.19-.14-.13-.22-.3-.23-.49l-.09-1.88c0-.17.05-.34.15-.47l4.21-5.3c1.74-2.2 1.95-3.31 1.9-4.19-.07-1.42-1.09-1.42-1.43-1.42h-.13c-1.1.05-2.23.67-3.26 1.79-.2.19-.41.28-.64.28-.46 0-.82-.36-.84-.84l-.09-1.96c0-.19.06-.38.2-.52 1.23-1.29 2.91-2.07 4.61-2.15h.42c3.07 0 4.84 1.65 4.98 4.65.11 2.33-1.5 4.59-2.73 6.09l-2.43 2.99s5.1-.24 5.11-.24c.38 0 .69.3.71.68l.09 2c0 .19-.06.37-.18.51-.13.14-.3.22-.49.23 0 0-9.35.43-9.36.43z" fill="#fff"/><path d="m208.66 255.57c2.61 0 4.15 1.31 4.27 3.98.09 1.88-1.1 3.81-2.57 5.6l-3.4 4.18v.04s6.62-.31 6.62-.31l.09 2-9.33.43-.09-1.88 4.21-5.3c1.71-2.16 2.11-3.44 2.06-4.66-.06-1.23-.75-2.1-2.14-2.1-.05 0-.11 0-.16 0-1.26.06-2.55.72-3.75 2.02-.04.04-.08.05-.12.05-.07 0-.13-.06-.13-.16l-.09-1.96c1.04-1.09 2.51-1.86 4.13-1.93h.38m.02-1.42c-.15 0-.3 0-.45.01-1.88.09-3.74.95-5.09 2.37-.27.28-.41.66-.39 1.04l.09 1.96c.04.85.72 1.51 1.55 1.51.41 0 .8-.16 1.1-.45.02-.02.04-.04.06-.06.91-.98 1.87-1.52 2.78-1.56h.09c.4 0 .69.05.72.75.03.74-.15 1.7-1.75 3.71l-4.21 5.3c-.21.27-.32.6-.31.95l.09 1.88c.02.38.18.73.46.98.26.24.6.37.95.37h.07l9.33-.43c.38-.02.73-.18.98-.46s.39-.64.37-1.02l-.09-2c-.04-.76-.66-1.35-1.41-1.35-.02 0-.04 0-.07 0l-3.49.16 1.44-1.77c1.29-1.58 3-3.99 2.88-6.56-.15-3.34-2.28-5.33-5.69-5.33z" fill="#231f20"/><path d="m219.31 271.48c-1.47 0-2.82-.37-3.99-1.1-.19-.12-.31-.32-.33-.54l-.15-1.85c-.02-.25.06-.5.23-.69.16-.18.39-.28.63-.28.19 0 .37.06.52.17.91.66 1.79.94 2.94.94.23 0 .47-.01.71-.03 1.33-.16 2.16-1.22 2.04-2.63-.13-1.59-1.45-1.93-2.53-1.93-.15 0-.31 0-.48.02-1.04.09-2 .3-3.02.67-.08.03-.16.04-.24.04-.14 0-.28-.04-.4-.12-.19-.13-.3-.34-.31-.57l-.21-8.07c0-.38.27-.69.65-.72 0 0 7.94-.66 7.96-.66.36 0 .67.28.71.65l.17 1.97c.02.19-.04.37-.17.52-.12.14-.29.23-.48.25l-5.2.43.05 2.38c.34-.06.69-.11 1.03-.13.24-.02.47-.03.7-.03 3.1 0 5.27 1.88 5.51 4.8.14 1.66-.31 3.22-1.27 4.39-1.01 1.23-2.47 1.95-4.24 2.1-.27.02-.53.03-.79.03z" fill="#fff"/><path d="m223.31 254.84.17 1.97-5.86.49.08 3.89h.06c.51-.13 1.09-.24 1.72-.29.22-.02.43-.03.64-.03 2.78 0 4.59 1.61 4.8 4.15.25 2.99-1.6 5.45-4.87 5.72-.25.02-.49.03-.73.03-1.3 0-2.51-.31-3.62-.99l-.15-1.85c0-.12.07-.2.15-.2.03 0 .07.01.1.04 1.1.79 2.14 1.08 3.36 1.08.25 0 .51-.01.77-.03 1.73-.21 2.84-1.58 2.69-3.4-.14-1.64-1.33-2.58-3.24-2.58-.17 0-.35 0-.54.02-1.1.09-2.12.32-3.2.71l-.21-8.07 7.9-.66m-.02-1.42s-.08 0-.12 0l-7.9.66c-.75.06-1.32.7-1.3 1.45l.21 8.07c.01.46.24.88.62 1.13.24.16.52.25.8.25.16 0 .33-.03.48-.09.96-.35 1.86-.55 2.83-.63.14-.01.28-.02.42-.02 1.72 0 1.8.9 1.83 1.28.09 1.04-.47 1.75-1.44 1.87-.18.01-.39.02-.61.02-1 0-1.73-.23-2.53-.81-.27-.2-.59-.3-.93-.3-.44 0-.86.19-1.15.51-.3.33-.45.78-.41 1.23l.15 1.85c.04.45.28.85.67 1.09 1.29.8 2.76 1.2 4.37 1.2.28 0 .56-.01.85-.04 1.94-.16 3.62-1 4.73-2.36 1.08-1.31 1.58-3.05 1.43-4.9-.28-3.31-2.72-5.45-6.22-5.45-.25 0-.5.01-.76.03-.09 0-.18.02-.27.03l-.02-.91 4.54-.38c.37-.03.72-.21.96-.5s.36-.66.33-1.03l-.17-1.97c-.06-.74-.68-1.3-1.41-1.3z" fill="#231f20"/><path d="m228.7 270.73c-1.19 0-2.18-.89-2.31-2.07-.14-1.29.78-2.45 2.06-2.59.09 0 .18-.01.27-.01 1.2 0 2.2.9 2.33 2.09.14 1.28-.79 2.43-2.08 2.58-.09 0-.18.01-.26.01z" fill="#fff"/><path d="m228.71 266.76c.85 0 1.53.64 1.62 1.46.1.88-.52 1.69-1.45 1.79-.06 0-.12.01-.19.01-.83 0-1.52-.63-1.61-1.44-.1-.88.52-1.71 1.43-1.81.06 0 .13-.01.19-.01m.01-1.41c-.11 0-.23 0-.34.02-1.66.19-2.87 1.7-2.68 3.37.17 1.54 1.47 2.7 3.01 2.7.11 0 .23 0 .34-.02 1.68-.19 2.89-1.7 2.7-3.36-.17-1.55-1.48-2.72-3.03-2.72z" fill="#231f20"/><path d="m236.94 269.69c-3.2 0-5.2-2.67-5.94-7.92-.8-5.74.67-8.91 4.37-9.43.29-.04.58-.06.85-.06 3.2 0 5.2 2.67 5.94 7.92.8 5.74-.67 8.91-4.37 9.43-.29.04-.58.06-.85.06zm-.92-14c-.06 0-.12 0-.18.01-.33.05-.81.22-1.08 1.17-.28.96-.28 2.43 0 4.36.46 3.25 1.31 5.04 2.39 5.04.06 0 .12 0 .18-.01.33-.05.81-.22 1.08-1.17.28-.96.28-2.43 0-4.36-.46-3.25-1.31-5.04-2.39-5.04z" fill="#fff"/><path d="m236.22 252.99c2.69 0 4.52 2.23 5.24 7.31.78 5.55-.66 8.19-3.76 8.63-.26.04-.51.05-.75.05-2.69 0-4.52-2.23-5.24-7.31-.78-5.55.66-8.19 3.76-8.63.26-.04.51-.05.75-.05m.92 14c.09 0 .18 0 .28-.02 1.59-.22 2.28-2.14 1.69-6.34-.55-3.95-1.65-5.64-3.09-5.64-.09 0-.18 0-.28.02-1.59.22-2.28 2.14-1.69 6.34.55 3.95 1.65 5.64 3.09 5.64m-.92-15.42c-.31 0-.63.02-.95.07-2.87.4-6.05 2.5-4.97 10.23.55 3.89 2.14 8.53 6.64 8.53.31 0 .63-.02.95-.07 2.87-.4 6.05-2.5 4.97-10.23-.55-3.89-2.14-8.53-6.64-8.53zm.92 14c-.3 0-1.18-.79-1.69-4.42-.32-2.29-.18-3.48-.01-4.07.18-.62.39-.65.5-.67h.08c.3 0 1.18.79 1.69 4.42.32 2.29.18 3.48.01 4.07-.18.62-.39.65-.5.67-.03 0-.05 0-.08 0z" fill="#231f20"/><path d="m247.59 267.82c-2.72 0-4.56-1.51-5.03-4.13-.3-1.68.17-3.2 1.28-4.28-1.14-.6-2.03-1.74-2.26-3.04-.24-1.35.04-2.65.79-3.66.79-1.06 2.07-1.78 3.68-2.07.46-.08.91-.12 1.34-.12 2.56 0 4.42 1.51 4.86 3.93.24 1.3-.2 2.68-1.06 3.64 1.42.62 2.39 1.88 2.69 3.56.56 3.09-1.27 5.4-4.75 6.03-.53.1-1.05.14-1.53.14zm.64-7.37c-.13 0-.26.01-.4.04-1.14.21-1.77 1.15-1.55 2.35.18 1.02.79 1.56 1.74 1.56.16 0 .33-.02.5-.05 1.23-.22 1.79-1.01 1.58-2.21-.19-1.04-.91-1.69-1.88-1.69zm-1.14-6.64c-.14 0-.29.01-.45.04-1.05.19-1.55.86-1.37 1.85.16.86.74 1.38 1.57 1.38.12 0 .25-.01.37-.03 1-.18 1.54-.94 1.36-1.94-.09-.48-.39-1.29-1.47-1.29z" fill="#fff"/><path d="m247.39 251.21c2.33 0 3.81 1.37 4.16 3.35.27 1.5-.52 3.14-1.88 3.79v.04c1.77.23 3.14 1.37 3.5 3.37.46 2.58-.9 4.61-4.18 5.21-.5.09-.97.13-1.4.13-2.45 0-3.94-1.36-4.33-3.55-.36-2.01.53-3.55 2.1-4.38v-.04c-1.51-.14-2.82-1.4-3.09-2.9-.42-2.3.88-4.37 3.91-4.91.43-.08.83-.11 1.21-.11m-.55 6.58c.16 0 .33-.01.5-.05 1.33-.24 2.18-1.33 1.93-2.77-.2-1.1-.95-1.88-2.17-1.88-.18 0-.38.02-.58.05-1.56.28-2.17 1.41-1.94 2.67.23 1.25 1.15 1.96 2.27 1.96m1.17 7.33c.2 0 .41-.02.63-.06 1.58-.29 2.44-1.42 2.15-3.03-.26-1.42-1.31-2.27-2.57-2.27-.17 0-.35.02-.52.05-1.48.27-2.42 1.55-2.13 3.17.25 1.39 1.18 2.15 2.44 2.15m-.63-15.31c-.47 0-.96.05-1.46.14-1.8.32-3.22 1.13-4.13 2.34-.87 1.17-1.2 2.67-.92 4.21.22 1.24.92 2.33 1.88 3.07-.86 1.16-1.18 2.64-.9 4.25.53 2.95 2.67 4.72 5.73 4.72.53 0 1.08-.05 1.65-.16 3.92-.71 5.96-3.33 5.33-6.85-.29-1.6-1.11-2.87-2.32-3.67.64-1.03.92-2.3.69-3.54-.49-2.74-2.67-4.52-5.56-4.52zm-.55 6.57c-.49 0-.78-.27-.88-.8-.11-.6.12-.9.8-1.02.12-.02.23-.03.33-.03.21 0 .65 0 .78.71.15.82-.43 1.06-.78 1.12-.08.02-.17.02-.25.02zm1.18 7.32c-.41 0-.89-.11-1.05-.98-.14-.8.23-1.39.98-1.52.09-.02.18-.03.27-.03.62 0 1.05.4 1.18 1.11.1.54.07 1.19-1.01 1.39-.13.02-.26.04-.38.04z" fill="#231f20"/><path d="m257.06 266.2c-1.09 0-2.05-.78-2.27-1.85-.27-1.27.54-2.51 1.8-2.78.16-.03.33-.05.49-.05 1.1 0 2.06.78 2.29 1.87.26 1.26-.55 2.5-1.82 2.76-.16.03-.32.05-.49.05z" fill="#fff"/><path d="m257.08 262.23c.77 0 1.44.55 1.6 1.3.18.86-.36 1.73-1.27 1.92-.12.02-.23.04-.34.04-.76 0-1.42-.54-1.58-1.29-.18-.86.35-1.75 1.25-1.94.12-.02.23-.04.35-.04m-.01-1.4c-.21 0-.43.02-.64.07-1.64.34-2.69 1.97-2.34 3.62.29 1.4 1.54 2.41 2.97 2.41.21 0 .43-.02.63-.07 1.65-.35 2.71-1.96 2.37-3.6-.3-1.41-1.55-2.43-2.99-2.43z" fill="#231f20"/><path d="m261.51 265.01c-.32 0-.61-.22-.69-.54l-.44-1.83c-.04-.17-.02-.34.06-.49l3.12-6.01c1.29-2.49 1.28-3.62 1.07-4.47-.19-.77-.62-1.17-1.27-1.17-.16 0-.34.02-.52.07-1.07.26-2.06 1.08-2.86 2.38-.19.28-.45.41-.73.41-.4 0-.73-.27-.83-.68l-.46-1.9c-.05-.19-.01-.39.09-.55.96-1.5 2.46-2.59 4.12-2.99.62-.15 1.21-.23 1.75-.23 2.27 0 3.85 1.33 4.43 3.76.55 2.27-.6 4.8-1.52 6.5l-1.82 3.4 4.93-1.2c.06-.01.11-.02.17-.02.32 0 .61.22.69.54l.47 1.94c.04.18.01.38-.08.54-.1.16-.26.28-.44.32l-9.07 2.2c-.06.01-.11.02-.17.02z" fill="#fff"/><path d="m263.92 247.71c1.91 0 3.22 1.05 3.75 3.22.44 1.83-.36 3.96-1.45 5.99l-2.54 4.75v.04s6.45-1.56 6.45-1.56l.47 1.94-9.07 2.2-.44-1.83 3.12-6.01c1.27-2.45 1.42-3.78 1.13-4.97-.25-1.03-.92-1.71-1.96-1.71-.21 0-.44.03-.69.09-1.22.3-2.36 1.19-3.29 2.69-.04.05-.08.08-.13.08-.06 0-.12-.05-.14-.14l-.46-1.91c.81-1.27 2.11-2.3 3.69-2.69.56-.14 1.09-.21 1.58-.21m-.02-1.38c-.6 0-1.24.08-1.92.25-1.83.44-3.49 1.65-4.55 3.3-.21.33-.28.72-.18 1.1l.46 1.91c.17.72.79 1.22 1.52 1.22.51 0 .99-.25 1.29-.68.02-.02.03-.05.05-.07.7-1.14 1.54-1.85 2.43-2.06.13-.03.25-.05.36-.05.17 0 .43 0 .58.63.17.72.17 1.7-1.01 3.98l-3.12 6.01c-.16.3-.2.65-.12.99l.44 1.83c.16.65.74 1.08 1.38 1.08.11 0 .22-.01.34-.04l9.07-2.2c.37-.09.68-.32.88-.64s.26-.71.17-1.07l-.47-1.94c-.16-.65-.74-1.08-1.38-1.08-.11 0-.22.01-.34.04l-3.4.82 1.07-2.01c.97-1.8 2.19-4.49 1.58-7-.66-2.73-2.53-4.3-5.12-4.3z" fill="#231f20"/><path d="m275.15 261.46c-2.35 0-4.07-1.33-4.74-3.64-.47-1.64-.15-3.2.84-4.39-1.21-.48-2.2-1.53-2.57-2.79-.8-2.79.76-5.26 3.88-6.16.67-.19 1.33-.29 1.95-.29 2.26 0 3.98 1.29 4.6 3.46.37 1.28.07 2.69-.69 3.73 1.47.48 2.57 1.63 3.04 3.27.86 3.02-.72 5.5-4.13 6.48-.77.22-1.51.33-2.19.33zm.78-7.44c-.2 0-.4.03-.6.09-.53.15-.95.47-1.19.91-.25.45-.29 1-.13 1.58.18.63.62 1.39 1.66 1.39.23 0 .47-.04.73-.11 1.21-.35 1.69-1.18 1.35-2.36-.27-.94-.96-1.5-1.83-1.5zm-1.81-6.49c-.2 0-.42.03-.65.1-1.03.29-1.46 1.01-1.18 1.97.22.78.78 1.23 1.52 1.23.18 0 .37-.03.56-.08.98-.28 1.43-1.09 1.15-2.07-.12-.43-.47-1.15-1.4-1.15z" fill="#fff"/><path d="m274.52 244.9c2.02 0 3.41 1.17 3.92 2.94.42 1.46-.2 3.18-1.49 3.96v.04c1.79.05 3.27 1.04 3.83 3 .72 2.52-.43 4.68-3.64 5.6-.72.21-1.39.31-2 .31-2.1 0-3.49-1.17-4.05-3.13s.17-3.58 1.65-4.57v-.04s-.03 0-.04 0c-1.49 0-2.91-1.12-3.33-2.57-.64-2.25.44-4.43 3.39-5.28.63-.18 1.21-.26 1.75-.26m-.7 6.64c.24 0 .5-.04.75-.11 1.3-.37 2.04-1.54 1.64-2.95-.28-.99-1.01-1.66-2.08-1.66-.26 0-.54.04-.84.13-1.52.44-2.02 1.62-1.67 2.85.32 1.13 1.19 1.74 2.2 1.74m1.87 7.16c.29 0 .6-.05.92-.14 1.54-.44 2.29-1.65 1.83-3.23-.37-1.29-1.37-2.02-2.51-2.02-.26 0-.52.04-.79.11-1.45.42-2.25 1.79-1.8 3.37.36 1.25 1.23 1.91 2.34 1.91m-1.15-15.22c-.69 0-1.41.11-2.14.32-3.53 1.01-5.28 3.84-4.37 7.03.35 1.21 1.15 2.23 2.19 2.87-.74 1.25-.91 2.75-.46 4.32.76 2.64 2.73 4.15 5.42 4.15.75 0 1.55-.12 2.39-.36 3.83-1.1 5.6-3.91 4.61-7.35-.45-1.57-1.4-2.75-2.68-3.41.53-1.09.68-2.38.33-3.59-.7-2.45-2.73-3.97-5.28-3.97zm-.71 6.64c-.42 0-.7-.24-.84-.71-.17-.59.03-.91.7-1.1.17-.05.32-.07.45-.07.16 0 .53 0 .72.63.23.81-.32 1.09-.67 1.19-.12.04-.25.05-.36.05zm1.87 7.16c-.34 0-.76-.1-.98-.88-.11-.4-.09-.76.07-1.05.15-.27.41-.47.76-.57.14-.04.27-.06.4-.06.55 0 .97.36 1.15.99.15.53.19 1.18-.86 1.48-.19.05-.37.08-.53.08z" fill="#231f20"/><path d="m282.93 252.83c-.39 0-.72-.25-.85-.64l-.67-1.99c-.04-.11-.05-.23-.03-.34.23-1.35 1.12-2.42 2.38-2.84.42-.14.85-.21 1.29-.21.52 0 1.04.1 1.54.31.5.2.75.29.97.29.1 0 .2-.02.31-.06.77-.26.95-1.11.99-1.46.06-.49.43-.84.89-.84.39 0 .72.25.85.64l.67 1.99c.04.11.05.23.03.34-.22 1.33-1.14 2.42-2.38 2.84-.43.14-.9.22-1.35.22-.55 0-1.08-.11-1.53-.32-.47-.22-.73-.3-.93-.3-.1 0-.19.02-.31.06-.76.26-.94 1.12-.98 1.48-.06.49-.43.84-.89.84z" fill="#fff"/><path d="m289.76 245.74c.07 0 .14.05.18.16l.67 1.99c-.19 1.12-.93 1.96-1.91 2.29-.36.12-.74.18-1.13.18-.43 0-.86-.08-1.23-.26-.51-.24-.87-.37-1.23-.37-.17 0-.35.03-.54.1-.87.29-1.35 1.13-1.46 2.07-.02.14-.1.22-.18.22-.07 0-.14-.05-.18-.16l-.67-1.99c.19-1.12.93-1.96 1.91-2.29.35-.12.71-.18 1.07-.18.43 0 .86.08 1.28.25.52.21.88.34 1.24.34.17 0 .35-.03.54-.09.87-.29 1.36-1.11 1.46-2.05.02-.14.1-.21.18-.21m0-1.42c-.82 0-1.49.61-1.59 1.46-.02.18-.11.75-.51.88-.04.01-.07.02-.09.02-.12 0-.52-.16-.71-.24-.58-.24-1.19-.36-1.81-.36-.51 0-1.02.08-1.52.25-1.49.5-2.59 1.8-2.85 3.4-.04.23-.02.47.05.69l.67 1.99c.22.67.84 1.12 1.52 1.12.82 0 1.49-.62 1.59-1.47.04-.37.19-.79.5-.9.05-.02.08-.02.09-.02.05 0 .19.03.63.23.55.25 1.18.39 1.83.39.53 0 1.08-.09 1.58-.26 1.49-.5 2.59-1.8 2.85-3.4.04-.23.02-.47-.05-.69l-.67-1.99c-.22-.67-.84-1.12-1.52-1.12z" fill="#231f20"/><path d="m296.31 254.74c-.1 0-.19-.02-.28-.06-.17-.08-.31-.22-.38-.39l-.68-1.75c-.06-.16-.06-.34 0-.5l2.29-6.37c.95-2.64.78-3.76.46-4.58-.26-.66-.67-1-1.21-1-.22 0-.46.05-.72.15-1.02.4-1.89 1.35-2.52 2.74-.17.33-.46.52-.78.52-.35 0-.67-.22-.8-.57l-.71-1.83c-.07-.18-.06-.38.02-.56.75-1.62 2.09-2.9 3.68-3.52.86-.34 1.68-.51 2.43-.51 1.34 0 3.15.55 4.17 3.18.85 2.18.05 4.83-.63 6.64l-1.34 3.62 4.73-1.85c.08-.03.17-.05.26-.05.1 0 .19.02.28.06.17.08.31.22.38.39l.73 1.86c.14.36-.04.78-.4.92l-8.69 3.4c-.08.03-.17.05-.26.05z" fill="#fff"/><path d="m297.1 237.22c1.58 0 2.79.89 3.51 2.73.68 1.75.18 3.97-.64 6.13l-1.88 5.05v.04s6.18-2.42 6.18-2.42l.73 1.86-8.69 3.4-.68-1.75 2.29-6.37c.93-2.6.9-3.94.46-5.08-.35-.89-.99-1.45-1.87-1.45-.3 0-.62.06-.97.2-1.17.46-2.18 1.5-2.9 3.11-.03.06-.08.1-.13.1-.06 0-.11-.04-.14-.12l-.71-1.83c.63-1.37 1.79-2.57 3.3-3.16.78-.31 1.51-.46 2.17-.46m-.03-1.39c-.83 0-1.74.19-2.68.56-1.76.69-3.24 2.1-4.06 3.88-.16.35-.18.75-.03 1.11l.71 1.83c.24.62.82 1.02 1.46 1.02.58 0 1.11-.33 1.39-.86.01-.03.03-.05.04-.08.55-1.22 1.28-2.04 2.13-2.37.17-.07.33-.1.46-.1.09 0 .34 0 .55.55.27.69.4 1.66-.47 4.08l-2.29 6.37c-.12.32-.11.68.01.99l.68 1.75c.14.35.41.63.75.78.18.08.37.12.57.12.18 0 .35-.03.52-.1l8.69-3.4c.73-.29 1.09-1.11.8-1.83l-.73-1.86c-.14-.35-.41-.63-.75-.78-.18-.08-.37-.12-.57-.12-.18 0-.35.03-.52.1l-3.25 1.27.79-2.14c.72-1.91 1.57-4.74.63-7.14-.91-2.34-2.63-3.63-4.83-3.63z" fill="#231f20"/><path d="m309.53 249.32c-2.51 0-4.71-2.08-6.54-6.17-1.18-2.65-1.63-4.78-1.36-6.5.27-1.74 1.26-3.01 2.96-3.76.73-.33 1.46-.49 2.17-.49 2.51 0 4.71 2.08 6.54 6.17 1.18 2.65 1.63 4.78 1.36 6.5-.27 1.74-1.26 3.01-2.96 3.76-.73.33-1.46.49-2.17.49zm-3.11-13.43c-.15 0-.3.03-.45.1-.31.14-.71.43-.71 1.42 0 1 .4 2.41 1.2 4.2 1.64 3.67 2.84 4.22 3.41 4.22.15 0 .3-.03.45-.1.31-.14.71-.43.71-1.42 0-1-.4-2.41-1.2-4.2-1.64-3.67-2.84-4.22-3.41-4.22z" fill="#fff"/><path d="m306.76 233.1c2.14 0 4.12 1.78 5.89 5.75 2.28 5.11 1.63 8.05-1.23 9.33-.64.28-1.27.43-1.88.43-2.14 0-4.12-1.78-5.89-5.75-2.28-5.11-1.63-8.05 1.23-9.33.64-.28 1.27-.43 1.88-.43m3.1 13.44c.25 0 .5-.06.74-.16 1.46-.65 1.6-2.68-.12-6.56-1.44-3.23-2.8-4.64-4.06-4.64-.25 0-.5.06-.74.16-1.46.65-1.6 2.68.12 6.56 1.44 3.23 2.8 4.64 4.06 4.64m-3.1-14.85c-.8 0-1.63.19-2.46.55-1.9.85-3.07 2.33-3.37 4.3-.29 1.86.18 4.12 1.42 6.9 1.95 4.37 4.37 6.59 7.18 6.59.8 0 1.63-.19 2.46-.55 1.9-.85 3.07-2.34 3.37-4.3.29-1.86-.18-4.12-1.42-6.9-1.95-4.37-4.37-6.59-7.18-6.59zm3.1 13.43s-1.09-.04-2.76-3.8c-.94-2.11-1.14-3.29-1.14-3.91 0-.65.19-.73.29-.78.09-.04.15-.04.16-.04.04 0 1.09.04 2.76 3.8.94 2.11 1.14 3.29 1.14 3.91 0 .65-.19.73-.29.78-.09.04-.15.04-.16.04z" fill="#231f20"/><path d="m317.63 245.71c-.07 0-.15-.01-.22-.04-.18-.06-.33-.19-.41-.35l-.85-1.68c-.08-.15-.1-.33-.05-.49l1.66-6.56c.69-2.72.42-3.82.02-4.6-.3-.59-.69-.89-1.18-.89-.25 0-.52.08-.82.23-.98.5-1.75 1.52-2.24 2.97-.15.38-.46.59-.81.59-.32 0-.62-.19-.77-.49l-.89-1.75c-.09-.17-.1-.37-.04-.56.59-1.68 1.8-3.08 3.33-3.86 1-.5 1.94-.76 2.82-.76 1.19 0 2.84.48 4.01 2.79 1.06 2.09.51 4.81 0 6.67l-.99 3.73 4.53-2.29c.1-.05.21-.08.32-.08.07 0 .15.01.22.04.18.06.33.19.41.35l.9 1.79c.18.35.04.78-.31.95l-8.33 4.22c-.1.05-.21.08-.32.08z" fill="#fff"/><path d="m317.18 228.18c1.4 0 2.56.78 3.38 2.4.85 1.68.56 3.93-.04 6.17l-1.39 5.21.02.04 5.91-2.99.9 1.79-8.33 4.22-.85-1.68 1.66-6.56c.68-2.68.52-4.01-.03-5.1-.4-.79-1.02-1.27-1.81-1.27-.35 0-.73.1-1.14.3-1.12.57-2.03 1.7-2.59 3.38-.03.07-.08.11-.14.11s-.1-.03-.14-.1l-.89-1.75c.5-1.42 1.53-2.73 2.98-3.46.89-.45 1.73-.68 2.49-.68m.01-1.45c-.98 0-2.04.28-3.13.84-1.68.85-3.02 2.4-3.67 4.25-.13.36-.1.77.07 1.11l.89 1.75c.28.54.81.88 1.4.88.64 0 1.21-.39 1.45-1 .01-.03.02-.05.03-.08.43-1.27 1.08-2.15 1.89-2.56.25-.12.41-.15.5-.15.2 0 .38.17.55.5.33.66.56 1.62-.08 4.11l-1.66 6.56c-.08.33-.05.68.11.99l.85 1.68c.17.34.47.59.82.71.14.05.29.07.44.07.22 0 .44-.05.64-.15l8.33-4.22c.7-.35.98-1.21.62-1.9l-.9-1.79c-.17-.34-.47-.59-.82-.71-.14-.05-.29-.07-.44-.07-.22 0-.44.05-.64.15l-3.12 1.58.59-2.2c.53-1.97 1.11-4.87-.06-7.17-1.33-2.62-3.26-3.18-4.64-3.18z" fill="#231f20"/><path d="m329.88 238.85c-2.23 0-4.26-1.58-6.04-4.68-2.85-4.98-2.42-9.66 1.06-11.65 1.12-.64 2.2-.96 3.28-.96h.16c.25 0 .47.15.59.36l.94 1.65c.16.28.16.62 0 .89-.15.26-.44.43-.75.43-.05 0-.13 0-.18-.02-.12-.01-.3-.03-.48-.03-.63 0-1.22.17-1.86.53-1.03.59-1.42 1.91-1.15 3.54.39-.58.92-1.08 1.57-1.45.8-.46 1.63-.69 2.47-.69 1.89 0 3.59 1.16 4.8 3.27 1.79 3.12 1.06 6.43-1.77 8.05-.88.5-1.78.76-2.66.76zm-.67-8.48c-.25 0-.53.08-.82.25-.4.23-1.46.84-.38 3.31.48.84 1.34 1.42 2.16 1.42.26 0 .49-.06.69-.18 1.15-.66.85-2.13.24-3.19-.42-.73-1.09-1.61-1.9-1.61z" fill="#fff"/><path d="m328.18 222.26s.1 0 .14 0l.94 1.65c.07.13 0 .26-.12.26-.01 0-.03 0-.04 0-.2-.03-.41-.04-.62-.04-.67 0-1.39.16-2.21.63-1.74 1-2.08 3.56-.85 6.36l.03-.02c.1-1.32.87-2.41 1.94-3.03.7-.4 1.42-.6 2.11-.6 1.6 0 3.1 1.03 4.18 2.91 1.59 2.78.96 5.67-1.51 7.09-.8.46-1.56.67-2.3.67-2.06 0-3.9-1.66-5.43-4.33-2.69-4.7-2.32-8.9.79-10.68 1.08-.62 2.05-.86 2.93-.86m2.02 13.79c.37 0 .73-.09 1.04-.27 1.38-.79 1.45-2.51.5-4.16-.76-1.33-1.61-1.97-2.51-1.97-.38 0-.77.12-1.17.34-1.47.84-1.47 2.39-.67 4.21.68 1.19 1.8 1.84 2.81 1.84m-2-15.2c-1.21 0-2.4.34-3.63 1.05-3.85 2.2-4.38 7.27-1.32 12.62 1.92 3.35 4.15 5.04 6.65 5.04 1 0 2.02-.29 3.01-.86 3.14-1.8 4-5.59 2.04-9.02-1.32-2.3-3.29-3.62-5.41-3.62-.96 0-1.91.26-2.82.79-.18.1-.35.21-.51.33.12-.54.39-.96.79-1.19.52-.3 1-.44 1.51-.44.14 0 .28 0 .44.03.07 0 .16.02.22.02.56 0 1.08-.3 1.36-.78.28-.49.28-1.1 0-1.6l-.94-1.64c-.24-.43-.69-.7-1.19-.71-.06 0-.12 0-.18 0zm.46 12.72c-.78-1.82-.18-2.17.11-2.34.18-.1.33-.15.46-.15.35 0 .83.47 1.28 1.25.1.17.94 1.7.02 2.22-.09.05-.21.08-.34.08-.45 0-1.09-.33-1.54-1.07z" fill="#231f20"/><path d="m338.67 234.19c-.81 0-1.54-.41-1.97-1.09-.33-.52-.44-1.14-.31-1.75.13-.62.5-1.15 1.03-1.48.38-.24.81-.36 1.25-.36.8 0 1.56.42 1.99 1.1.33.52.44 1.14.3 1.75s-.51 1.13-1.05 1.47c-.37.24-.8.36-1.24.36z" fill="#fff"/><path d="m338.67 230.21c.55 0 1.08.28 1.39.77.47.74.26 1.75-.53 2.24-.27.17-.57.25-.86.25-.54 0-1.07-.28-1.37-.76-.47-.74-.28-1.76.5-2.25.28-.17.58-.25.87-.25m0-1.41c-.57 0-1.14.16-1.63.47-.7.44-1.18 1.12-1.35 1.93-.17.79-.02 1.59.4 2.27.56.89 1.52 1.42 2.57 1.42.57 0 1.13-.16 1.62-.47.7-.44 1.18-1.12 1.36-1.92.18-.79.04-1.6-.39-2.28-.56-.89-1.53-1.43-2.59-1.43z" fill="#231f20"/><path d="m343.7 230.07c-1.57 0-2.93-.77-3.94-2.23-.97-1.4-1.17-2.98-.61-4.42-1.32-.07-2.58-.76-3.32-1.83-1.65-2.38-.97-5.23 1.7-7.07 1.13-.79 2.28-1.18 3.41-1.18 1.53 0 2.88.74 3.81 2.08.75 1.09.93 2.52.54 3.75h.07c1.54 0 2.91.76 3.86 2.13 1.79 2.58 1.08 5.44-1.83 7.46-1.26.87-2.5 1.31-3.68 1.31zm.66-7.69c-.39 0-.78.13-1.13.37-.45.31-.75.75-.83 1.24-.09.51.04 1.04.39 1.54.28.4.76.88 1.45.88.39 0 .81-.15 1.22-.44 1.03-.71 1.22-1.66.52-2.66-.42-.6-.99-.94-1.63-.94zm-3.9-5.56c-.34 0-.7.13-1.06.39-.46.32-.73.69-.8 1.09-.08.47.13.88.31 1.15.34.5.8.76 1.32.76.34 0 .69-.12 1.01-.34.4-.28.66-.65.74-1.05.08-.42-.02-.86-.31-1.28-.23-.33-.62-.72-1.21-.72z" fill="#fff"/><path d="m340.94 214.04c1.31 0 2.45.65 3.23 1.78.86 1.25.83 3.08-.14 4.23l.02.03c.44-.13.88-.2 1.31-.2 1.24 0 2.41.58 3.28 1.82 1.49 2.16 1.1 4.57-1.65 6.47-1.17.81-2.28 1.19-3.28 1.19-1.35 0-2.5-.69-3.36-1.92-1.16-1.68-.99-3.45.1-4.86l-.02-.03c-.34.12-.69.17-1.04.17-1.14 0-2.3-.58-2.97-1.54-1.33-1.92-1.01-4.34 1.52-6.09 1.05-.73 2.07-1.06 3.01-1.06m-.73 6.9c.48 0 .97-.16 1.42-.47 1.12-.77 1.44-2.11.61-3.32-.44-.64-1.07-1.03-1.79-1.03-.46 0-.96.16-1.47.51-1.3.9-1.39 2.18-.66 3.23.5.72 1.19 1.07 1.9 1.07m4.01 6.2c.53 0 1.09-.19 1.63-.56 1.32-.91 1.64-2.3.7-3.65-.57-.83-1.38-1.24-2.21-1.24-.52 0-1.05.17-1.53.5-1.24.86-1.56 2.42-.62 3.76.55.8 1.27 1.19 2.04 1.19m-3.31-14.5c-1.28 0-2.56.44-3.81 1.31-3.02 2.09-3.77 5.33-1.88 8.06.7 1.01 1.79 1.73 2.99 2.01-.3 1.42.01 2.9.94 4.24 1.13 1.63 2.74 2.53 4.52 2.53 1.33 0 2.7-.48 4.09-1.44 3.28-2.27 4.05-5.5 2.01-8.44-.92-1.33-2.19-2.15-3.63-2.37.16-1.2-.12-2.47-.83-3.51-1.07-1.54-2.63-2.39-4.39-2.39zm-.72 6.89c-.28 0-.52-.15-.73-.46-.09-.13-.24-.39-.2-.63.04-.26.3-.49.5-.63.25-.17.47-.26.66-.26.28 0 .5.23.63.42.18.26.25.51.2.73-.04.22-.2.44-.45.61-.21.14-.42.22-.61.22zm4.02 6.2c-.31 0-.61-.2-.87-.58-.24-.34-.33-.69-.27-1.01.05-.3.24-.57.54-.78.23-.16.48-.25.73-.25.39 0 .76.22 1.04.63.31.45.56 1.05-.34 1.68-.29.2-.58.31-.82.31z" fill="#231f20"/><path d="m353.08 224.23c-.72 0-1.42-.34-1.85-.92-.78-1.03-.59-2.5.43-3.28.42-.32.91-.48 1.42-.48.73 0 1.43.35 1.87.93.78 1.02.57 2.49-.46 3.28-.41.31-.9.48-1.41.48z" fill="#fff"/><path d="m353.07 220.26c.5 0 .99.23 1.31.65.53.7.42 1.72-.33 2.28-.3.23-.64.33-.98.33-.49 0-.98-.23-1.29-.64-.53-.7-.43-1.73.3-2.29.3-.23.65-.34.99-.34m0-1.41c-.67 0-1.31.22-1.85.63-1.33 1.02-1.59 2.93-.57 4.27.57.75 1.48 1.2 2.42 1.2.67 0 1.3-.22 1.84-.62 1.34-1.02 1.61-2.94.59-4.27-.58-.76-1.49-1.21-2.44-1.21z" fill="#231f20"/><path d="m357.35 220.98c-.19-.02-.36-.11-.48-.25l-1.21-1.44c-.11-.13-.17-.3-.17-.47l.12-6.77c.05-2.8-.47-3.81-1.03-4.48-.24-.28-.62-.62-1.1-.62-.32 0-.65.15-1 .44-.84.71-1.36 1.88-1.5 3.4-.07.47-.42.78-.84.78-.25 0-.5-.12-.67-.32l-1.26-1.5c-.12-.15-.18-.34-.16-.53.19-1.77 1.05-3.42 2.35-4.51 1.18-1 2.37-1.5 3.52-1.5 1.31 0 2.52.64 3.59 1.91 1.51 1.79 1.6 4.56 1.53 6.49l-.11 3.86 3.88-3.27c.13-.11.29-.17.46-.17h.06c.19.02.36.11.48.25l1.29 1.53c.25.3.21.75-.09 1l-7.14 6.01c-.13.11-.29.17-.46.17-.02 0-.04 0-.06 0z" fill="#fff"/><path d="m353.92 203.91c1.08 0 2.1.54 3.04 1.65 1.21 1.44 1.44 3.7 1.37 6.01l-.16 5.39.03.03 5.07-4.27 1.29 1.53-7.14 6.01-1.21-1.44.12-6.77c.05-2.76-.41-4.02-1.2-4.95-.47-.55-1.03-.87-1.64-.87-.47 0-.96.19-1.46.61-.96.81-1.58 2.12-1.75 3.88-.01.09-.07.14-.13.14-.04 0-.09-.02-.13-.07l-1.26-1.5c.16-1.5.87-3 2.11-4.05 1.04-.88 2.07-1.33 3.07-1.33m-.02-1.42c-1.33 0-2.67.56-3.98 1.67-1.44 1.21-2.39 3.03-2.6 4.98-.04.38.08.77.32 1.07l1.26 1.5c.31.37.75.58 1.22.58.77 0 1.41-.56 1.53-1.34 0-.03 0-.06.01-.09.12-1.33.56-2.34 1.25-2.93.21-.18.4-.27.54-.27.16 0 .36.13.56.37.48.57.91 1.44.87 4.02l-.12 6.77c0 .34.11.68.33.94l1.21 1.44c.24.29.59.47.96.5h.12c.33 0 .66-.12.91-.33l7.14-6.01c.6-.5.68-1.4.17-2l-1.29-1.53c-.24-.29-.59-.47-.96-.5-.04 0-.08 0-.12 0-.33 0-.66.12-.91.33l-2.67 2.25.07-2.28c.07-2.04-.04-4.99-1.7-6.97-1.5-1.78-3.07-2.16-4.13-2.16z" fill="#231f20"/><path d="m367.33 212.41s-.1 0-.15-.02c-.23-.05-.42-.21-.51-.43l-4.96-12.5-4.42 4.28c-.14.13-.31.2-.49.2-.19 0-.37-.07-.51-.22l-1.39-1.44c-.13-.14-.2-.32-.2-.5 0-.19.08-.37.22-.5l6.93-6.7c.14-.13.31-.2.49-.2s.37.07.51.22l1.39 1.44c.06.07.12.14.15.23l5.37 13.45c.11.27.04.57-.17.77l-1.77 1.71c-.13.13-.31.2-.49.2z" fill="#fff"/><path d="m362.33 195.1 1.39 1.44 5.37 13.45-1.77 1.71-5.35-13.48-5.19 5.02-1.39-1.44 6.93-6.7m.01-1.42c-.35 0-.71.13-.99.4l-6.93 6.7c-.27.26-.43.62-.43 1s.14.74.4 1.01l1.39 1.44c.28.29.65.43 1.02.43s.71-.13.99-.4l3.66-3.54 4.57 11.51c.17.44.56.76 1.02.86.1.02.2.03.3.03.36 0 .72-.14.99-.4l1.77-1.71c.41-.4.54-1.01.33-1.54l-5.37-13.45c-.07-.17-.17-.33-.3-.46l-1.39-1.44c-.28-.29-.65-.43-1.02-.43z" fill="#231f20"/></svg>